<svg id="sw-js-blob-svg" viewBox="0 0 100 100" xmlns="http://www.w3.org/2000/svg" version="1.1">
  <defs> 
    <linearGradient id="sw-gradient" x1="0" x2="1" y1="1" y2="0">
      <stop id="stop1" stop-color="rgba(31, 143, 160, 1)" offset="0%"></stop>
      <stop id="stop2" stop-color="rgba(46, 172, 208, 1)" offset="100%"></stop>
    </linearGradient>
  </defs>
  <path fill="url(#sw-gradient)" d="M17,-29.6C21.2,-23.8,23,-17.6,25.7,-11.7C28.3,-5.9,31.8,-0.4,33.7,6.7C35.6,13.8,35.9,22.6,32.1,28.9C28.3,35.1,20.4,38.8,13.3,37.3C6.2,35.7,-0.1,28.7,-5.2,24.3C-10.3,19.8,-14.2,17.7,-21.3,15.3C-28.4,12.8,-38.7,9.9,-42.2,4.3C-45.7,-1.2,-42.3,-9.5,-38.2,-16.9C-34,-24.3,-28.9,-30.7,-22.4,-35.4C-15.9,-40.2,-8,-43.2,-0.8,-42C6.4,-40.8,12.9,-35.5,17,-29.6Z" width="100%" 
  height="100%" transform="translate(50 50) rotate(120)" stroke-width="0" style="transition: 0.3s;"></path>
</svg>
