<svg width="60" height="60" viewBox="0 0 60 60" fill="none" xmlns="http://www.w3.org/2000/svg">
<g id="3 .ic/Thin/medical-record">
<path id="Combined Shape" fill-rule="evenodd" clip-rule="evenodd" d="M49.3061 6H36.4286V5C36.4251 2.24 34.0286 0.00325 31.0714 0H28.9286C25.9714 0.00325 23.5749 2.24 23.5714 5V6H10.6939C8.93076 6.00163 7.50174 7.33538 7.5 8.981V57.019C7.50174 58.6646 8.93076 59.9984 10.6939 60H49.3061C51.0692 59.9984 52.4983 58.6646 52.5 57.019V8.981C52.4983 7.33538 51.0692 6.00163 49.3061 6ZM25.7143 5C25.7143 3.34313 27.1533 2 28.9286 2H31.0714C32.8467 2 34.2857 3.34313 34.2857 5V6H25.7143V5ZM35.3571 10C36.7156 9.996 37.9247 9.19538 38.3775 8H21.6257C22.0781 9.19438 23.2856 9.99475 24.6429 10H35.3571ZM50.3571 57.019C50.3566 57.5606 49.8862 57.9995 49.3061 58H10.6939C10.1136 57.9995 9.64339 57.5605 9.64286 57.019V8.981C9.64339 8.43937 10.1138 8.0005 10.6939 8H19.3929C19.9054 10.3264 22.0981 11.997 24.6429 12H35.3571C37.9019 11.997 40.0946 10.3264 40.6071 8H49.3071C49.8873 8.0005 50.3577 8.4395 50.3582 8.981L50.3571 57.019ZM14.625 35C14.1418 35 13.75 35.3918 13.75 35.875C13.75 36.3582 14.1418 36.75 14.625 36.75H45.375C45.8582 36.75 46.25 36.3582 46.25 35.875C46.25 35.3918 45.8582 35 45.375 35H14.625ZM14.625 40.2719C14.1418 40.2719 13.75 40.6637 13.75 41.1469C13.75 41.6302 14.1418 42.0219 14.625 42.0219H45.375C45.8582 42.0219 46.25 41.6302 46.25 41.1469C46.25 40.6637 45.8582 40.2719 45.375 40.2719H14.625ZM13.75 46.4189C13.75 45.9356 14.1418 45.5439 14.625 45.5439H45.375C45.8582 45.5439 46.25 45.9356 46.25 46.4189C46.25 46.9021 45.8582 47.2939 45.375 47.2939H14.625C14.1418 47.2939 13.75 46.9021 13.75 46.4189ZM13.75 51.6908C13.75 51.2075 14.1418 50.8158 14.625 50.8158H45.375C45.8582 50.8158 46.25 51.2075 46.25 51.6908C46.25 52.174 45.8582 52.5658 45.375 52.5658H14.625C14.1418 52.5658 13.75 52.174 13.75 51.6908ZM33.7328 18.3866C34.2377 18.1365 34.8512 18.3405 35.1029 18.8422L36.8582 22.3408H44.9719C45.5324 22.3408 45.9868 22.7952 45.9868 23.3557C45.9868 23.9163 45.5324 24.3707 44.9719 24.3707H36.2268C35.8408 24.37 35.4884 24.1533 35.3154 23.8105L34.3755 21.9419L32.0911 28.7523C31.9458 29.1716 31.5464 29.4515 31.1 29.4466C30.6522 29.4371 30.2628 29.1387 30.1397 28.7107L28.743 23.8551L26.8887 26.9244C26.7246 27.1958 26.4424 27.3754 26.1256 27.4103C25.5647 27.4721 25.0598 27.0704 24.9976 26.5133L24.4867 21.9723L21.8713 29.7673C21.7372 30.1671 21.3684 30.4429 20.9446 30.4605H20.9017C20.493 30.4605 20.1238 30.2186 19.9628 29.8453L17.1634 23.3556H14.765C14.2044 23.3556 13.75 22.9012 13.75 22.3407C13.75 21.7801 14.2044 21.3257 14.765 21.3257H17.8367C18.2463 21.323 18.6178 21.5634 18.7807 21.9367L20.7873 26.5873L24.0239 16.9451C24.1499 16.5687 24.485 16.2996 24.8819 16.2562C25.4426 16.1949 25.9474 16.5969 26.009 17.1542L26.6966 23.2998L28.2046 20.803C28.3378 20.5831 28.5499 20.4216 28.7982 20.3508C29.3406 20.1963 29.9065 20.5077 30.062 21.0466L31.1991 24.9968L33.219 18.975C33.3047 18.7189 33.4895 18.507 33.7328 18.3866Z" fill="white"/>
</g>
</svg>
