<?xml version="1.0" encoding="UTF-8"?>
<svg width="32px" height="32px" viewBox="0 0 32 32" version="1.1" xmlns="http://www.w3.org/2000/svg" xmlns:xlink="http://www.w3.org/1999/xlink">
    <g id="Page-1" stroke="none" stroke-width="1" fill="none" fill-rule="evenodd">
        <g id="00-Recommendation-page" transform="translate(-1532.000000, -1621.000000)" fill="#fff">
            <g id="Group-3-Copy-3" transform="translate(1237.000000, 1605.000000)">
                <g id="3-.ic/solid/ic_tick" transform="translate(295.000000, 16.000000)">
                    <path d="M14.3998383,0 C14.5414814,0 14.6773076,0.0563413402 14.777364,0.156598332 C14.8774205,0.256855324 14.933489,0.392794037 14.9332052,0.534436836 L14.9332052,1.59903288 L16.5333058,1.59903288 C16.6749489,1.59903259 16.8107751,1.65537314 16.9108316,1.75563014 C17.0108881,1.85588713 17.0669566,1.99182584 17.0666727,2.13346864 L17.0666727,7.99943558 L17.6000396,7.99943558 C17.89461,7.99943558 18.1334065,8.23823207 18.1334065,8.53280247 C18.1334065,13.5671874 15.151255,17.7860233 11.1590198,18.9008563 C11.0008268,20.3331441 10.4011899,21.4169799 9.59953625,21.7547433 L9.59953625,23.9993735 C9.59953623,25.9049099 10.6161278,27.6656981 12.2663707,28.6184663 C13.9166136,29.5712345 15.9497967,29.5712345 17.6000397,28.6184663 C19.2502826,27.6656981 20.2668741,25.9049099 20.2668741,23.9993735 L20.2668741,10.9334879 C20.2668741,8.72450508 22.0576085,6.93377067 24.2665913,6.93377067 C26.4755742,6.93377067 28.2663086,8.72450508 28.2663086,10.9334879 L28.2663086,23.5044859 C30.5014477,23.786087 32.1325794,25.7567755 31.991502,28.0051623 C31.8504245,30.2535491 29.9857502,32.0048895 27.7329417,32.0048895 C25.4801332,32.0048895 23.6154589,30.2535491 23.4743815,28.0051623 C23.333304,25.7567755 24.9644357,23.786087 27.1995748,23.5044859 L27.1995748,10.9345568 C27.1995748,9.31471475 25.8864334,8.00157332 24.2665913,8.00157332 C22.6467493,8.00157332 21.3336079,9.31471475 21.3336079,10.9345568 L21.3336079,23.9993735 C21.363412,26.3055361 20.1501643,28.4493871 18.1577881,29.6111579 C16.165412,30.7729287 13.7020673,30.7729287 11.7096911,29.6111579 C9.71731489,28.4493871 8.50406723,26.3055361 8.53387134,23.9993735 L8.53387134,21.7536744 C7.73114883,21.4169799 7.13578739,20.334213 6.97545666,18.9019252 C2.98215263,17.7860233 0,13.5671874 0,8.53387134 C0,8.39222854 0.0557857338,8.25628983 0.155842212,8.15603284 C0.255898689,8.05577585 0.391724881,7.99943529 0.533367964,7.99943558 L1.06780373,7.99943558 L1.06780373,2.13346864 C1.06780314,1.83931516 1.30594885,1.60069123 1.60010175,1.60010175 L3.20020242,1.60010175 L3.20020242,0.533367964 C3.20020214,0.391724881 3.25654269,0.255898689 3.35679968,0.155842212 C3.45705667,0.0557857338 3.59299539,0 3.73463819,0 C4.49685274,0 5.20116804,0.40663768 5.58227532,1.06673485 C5.96338261,1.72683201 5.96338261,2.54010527 5.58227532,3.20020243 C5.20116804,3.8602996 4.49685274,4.26693622 3.73463819,4.26693621 C3.43962965,4.26693621 3.20020242,4.02750899 3.20020242,3.73356932 L3.20020242,2.66576666 L2.13346864,2.66576666 L2.13346864,7.99943558 L2.66683553,7.99943558 C2.96140593,7.99943558 3.20020242,8.23823207 3.20020242,8.53280247 C3.20020242,12.6500956 5.83283299,15.999939 9.06723823,15.999939 C12.3016435,15.999939 14.9332052,12.6500956 14.9332052,8.53280247 C14.9337947,8.23864958 15.1724186,8.00050386 15.4665721,8.00050445 L15.999939,8.00050445 L15.999939,2.66683553 L14.934274,2.66683553 L14.934274,3.73250044 C14.9345586,3.87432865 14.8783435,4.01042985 14.7780556,4.11071773 C14.6777677,4.21100562 14.5416665,4.26722072 14.3998383,4.26693621 C13.2215567,4.26693619 12.2663707,3.31175023 12.2663707,2.13346864 C12.2663707,0.955187051 13.2215567,0 14.3998383,0 Z M27.7329417,24.5327404 C26.5896199,24.5327404 25.5331469,25.1426952 24.961486,26.132841 C24.389825,27.1229868 24.389825,28.3428967 24.961486,29.3330424 C25.5331469,30.3231882 26.5896199,30.9331431 27.7329417,30.9331431 C29.5003641,30.9331431 30.9331431,29.5003641 30.9331431,27.7329417 C30.9331431,25.9655193 29.5003641,24.5327404 27.7329417,24.5327404 Z M27.7329417,25.5994741 C28.9112233,25.5994741 29.8664093,26.5546601 29.8664093,27.7329417 C29.8664093,28.9112233 28.9112233,29.8664093 27.7329417,29.8664093 C26.5546601,29.8664093 25.5994741,28.9112233 25.5994741,27.7329417 C25.5994741,26.5546601 26.5546601,25.5994741 27.7329417,25.5994741 Z M27.7329417,26.6662079 C27.3518344,26.6662079 26.9996767,26.8695262 26.8091231,27.1995748 C26.6185694,27.5296234 26.6185694,27.93626 26.8091231,28.2663086 C26.9996767,28.5963572 27.3518344,28.7996755 27.7329417,28.7996755 C28.3220825,28.7996755 28.7996754,28.3220825 28.7996754,27.7329417 C28.7996754,27.1438009 28.3220825,26.6662079 27.7329417,26.6662079 Z M10.0420491,19.1349391 C9.71818099,19.177694 9.39217518,19.1990714 9.06616936,19.1990714 C8.74016355,19.1990714 8.41308886,19.177694 8.09028966,19.136008 C8.27841105,20.1717445 8.72947483,20.7991721 9.06616936,20.7991721 C9.40286389,20.7991721 9.85392768,20.1717445 10.0420491,19.1349391 Z M2.14522623,9.06616936 L1.07849244,9.06616936 C1.30936869,14.1123118 4.80457859,18.1334065 9.06616936,18.1334065 C13.3277601,18.1334065 16.8219012,14.1123118 17.0527774,9.06616936 L15.9860436,9.06616936 C15.7615806,13.5244325 12.7430874,17.0666727 9.06616936,17.0666727 C5.38818244,17.0666727 2.37075812,13.5233636 2.14522623,9.06616936 Z M4.26800508,1.20996364 L4.26800508,3.05697364 C4.59774778,2.86633818 4.80082924,2.51435199 4.80082924,2.13346864 C4.80082924,1.75258529 4.59774778,1.4005991 4.26800508,1.20996364 Z M13.8664714,1.20996364 C13.5372492,1.40073771 13.3345706,1.75243195 13.3345706,2.1329342 C13.3345706,2.51343646 13.5372492,2.86513069 13.8664714,3.05590477 Z" id="Combined-Shape"></path>
                </g>
            </g>
        </g>
    </g>
</svg>
