<svg width="60" height="60" viewBox="0 0 60 60" fill="none" xmlns="http://www.w3.org/2000/svg">
<g id="3 .ic/Thin/question">
<path id="Fill 1" fill-rule="evenodd" clip-rule="evenodd" d="M30.2345 48.9555H48.6493C49.3842 48.9555 49.9817 48.3575 49.9817 47.6222C49.9817 46.8868 49.3842 46.2888 48.6493 46.2888H30.2345C29.4996 46.2888 28.9021 46.8868 28.9021 47.6222C28.9021 48.3575 29.4996 48.9555 30.2345 48.9555ZM21.6537 41.0309C22.4665 50.1973 30.2184 57.3333 39.4413 57.3333C42.3238 57.3333 45.189 56.6276 47.7264 55.2955C48.0159 55.142 48.3475 55.0974 48.6567 55.1779L56.8936 56.9322L55.1381 48.672C55.0701 48.365 55.1097 48.0381 55.2532 47.7521C56.5881 45.2179 57.292 42.3568 57.292 39.4697C57.292 30.2328 50.1623 22.4802 41.0013 21.6817C40.8405 24.5737 40.0549 27.4311 38.7176 29.9975H48.6493C49.3842 29.9975 49.9817 30.5955 49.9817 31.3309C49.9817 32.065 49.3842 32.6642 48.6493 32.6642H37.0548C35.407 34.9051 33.3719 36.7522 31.0745 38.1376H48.6493C49.3842 38.1376 49.9817 38.7343 49.9817 39.4697C49.9817 40.2051 49.3842 40.8031 48.6493 40.8031H30.2345C29.4996 40.8031 28.9021 40.2051 28.9021 39.4697C28.9021 39.4004 28.907 39.3335 28.9169 39.2679C26.6554 40.2843 24.2034 40.8897 21.6537 41.0309ZM3.06316 37.994L11.3458 36.2372C11.4708 36.2162 11.5549 36.2038 11.6266 36.2038C11.8382 36.2038 12.0386 36.2521 12.2378 36.3511L12.244 36.3548C14.7702 37.6869 17.6305 38.3926 20.5155 38.3926C30.3582 38.3926 38.365 30.3788 38.365 20.5291C38.365 10.6793 30.3582 2.66548 20.5155 2.66548C10.6716 2.66548 2.6648 10.6793 2.6648 20.5291C2.6648 23.4174 3.36873 26.2797 4.70113 28.8065C4.84217 29.1061 4.88176 29.4218 4.81866 29.7078L3.06316 37.994ZM59.6104 59.615C59.3432 59.8663 59.0091 60 58.6627 60C58.565 60 58.4685 59.9839 58.3893 59.969L48.5503 57.878C45.7371 59.2658 42.5985 60 39.4673 60C34.0436 60 28.9244 57.8966 25.0546 54.0748C21.5065 50.5625 19.3662 45.9298 19.0087 40.9999C16.3649 40.7907 13.762 40.0813 11.4572 38.9374L1.6256 41.0272C1.50189 41.047 1.41653 41.0593 1.34477 41.0593C0.987238 41.0593 0.642076 40.9194 0.397122 40.6743C0.0717542 40.3475 -0.0643313 39.8919 0.0321657 39.4536L2.11922 29.6187C0.732387 26.8034 0 23.6638 0 20.5291C0 9.20972 9.20309 0 20.5155 0C31.2526 0 40.186 8.32329 40.9729 18.9976C45.9091 19.3678 50.5397 21.5108 54.0358 25.0466C57.8536 28.9068 59.9568 34.0286 59.9568 39.4697C59.9568 42.6044 59.2256 45.7441 57.8376 48.5581L59.9753 58.3968C60.0607 58.8387 59.9209 59.303 59.6104 59.615ZM19.4021 27.0027C18.6326 27.0027 18.0066 27.6292 18.0066 28.3992C18.0066 29.1705 18.6326 29.797 19.4021 29.797C20.1728 29.797 20.7988 29.1705 20.7988 28.3992C20.7988 27.6292 20.1728 27.0027 19.4021 27.0027ZM12.8267 17.0106C12.8267 13.3745 15.7822 10.4168 19.4144 10.4168C23.0417 10.4168 25.9911 13.3745 25.9911 17.0106C25.9911 20.6083 23.4871 22.1113 21.9902 23.0088C21.5164 23.2998 20.8038 23.7356 20.7456 23.9237L20.7481 24.8164C20.7481 25.5518 20.1493 26.1497 19.4144 26.1497C18.6808 26.1497 18.0833 25.5518 18.0833 24.8164V23.9076C18.0833 22.2573 19.4825 21.413 20.6058 20.7358C22.0966 19.8283 23.3387 19.0707 23.3387 17.0106C23.3387 14.8452 21.5782 13.0835 19.4144 13.0835C17.2519 13.0835 15.4915 14.8452 15.4915 17.0106C15.4915 17.746 14.8939 18.3427 14.1591 18.3427C13.4242 18.3427 12.8267 17.746 12.8267 17.0106Z" fill="white"/>
</g>
</svg>