<svg width="60" height="60" viewBox="0 0 60 60" fill="none" xmlns="http://www.w3.org/2000/svg">
<g id="3 .ic/Thin/quiz">
<path id="Fill 1" fill-rule="evenodd" clip-rule="evenodd" d="M44.9199 11.567C46.1174 12.7783 46.7661 14.352 46.7486 15.997C46.7186 18.8283 44.7849 21.2895 42.0499 21.9833C41.7686 22.0545 41.5724 22.3058 41.5724 22.5958L41.5711 25.3408C41.5711 25.9283 41.0924 26.407 40.5036 26.407C39.9136 26.407 39.4361 25.9283 39.4361 25.3408V22.5508C39.4361 21.3058 40.2799 20.2045 41.4411 19.9345C43.2874 19.5045 44.5924 17.877 44.6136 15.9745C44.6261 14.9195 44.1849 13.8608 43.4036 13.0683C42.6224 12.2758 41.5649 11.8208 40.5024 11.8195C38.2424 11.8195 36.4036 13.6633 36.4036 15.9308C36.4036 16.5195 35.9249 16.9983 35.3361 16.9983C34.7474 16.9983 34.2686 16.5195 34.2686 15.9308C34.2686 12.487 37.0686 9.6858 40.5111 9.68455C42.1561 9.68705 43.7224 10.3558 44.9199 11.567ZM17.9236 37.6958C17.9236 37.1583 18.3611 36.7208 18.8986 36.7208H21.6024C22.1399 36.7208 22.5774 37.1583 22.5774 37.6958C22.5774 38.2333 22.1399 38.672 21.6024 38.672H18.8986C18.3611 38.672 17.9236 38.2333 17.9236 37.6958ZM17.9236 42.1745C17.9236 41.637 18.3611 41.2008 18.8986 41.2008H22.5874C23.1249 41.2008 23.5636 41.637 23.5636 42.1745C23.5636 42.7133 23.1249 43.1508 22.5874 43.1508H18.8986C18.3611 43.1508 17.9236 42.7133 17.9236 42.1745ZM52.0161 32.9908C48.1848 36.3608 43.0761 37.9183 37.9724 37.2695C37.5361 37.2095 37.0924 37.2995 36.7224 37.512C36.5686 37.6095 34.1961 39.3395 30.2248 42.2508L29.7586 42.5933L29.2511 34.3558C29.2161 33.8208 28.9748 33.3345 28.5736 32.9883C24.6973 29.5708 22.5049 24.6595 22.5561 19.512C22.6411 10.2958 30.1961 2.4283 39.3961 1.97455C44.3136 1.73705 49.0111 3.47705 52.5373 6.8333C56.0386 10.1658 58.0486 14.8483 58.0486 19.6795C58.0486 24.7645 55.8498 29.6158 52.0161 32.9908ZM42.9649 54.7045C42.9649 56.5483 41.4636 58.0483 39.6199 58.0483H5.3036C3.45485 58.0483 1.9511 56.5458 1.9511 54.6983V13.722C1.9511 11.8745 3.45485 10.372 5.30235 10.372H22.9824L22.7474 10.8308C21.3936 13.4945 20.6311 16.5708 20.6011 19.492C20.5474 25.132 22.9311 30.5383 27.1398 34.327L27.2348 34.412L27.8099 42.642C27.8999 43.4095 28.3098 44.007 28.9623 44.3095C29.5798 44.5958 30.2936 44.5495 30.8761 44.1883L30.9474 44.1433L37.7323 39.2183H37.8274C39.3386 39.4045 41.0386 39.4083 42.6136 39.2345L42.9649 39.1945V54.7045ZM53.8924 5.4258C49.9399 1.6658 44.7799 -0.254204 39.2999 0.0270461C33.4674 0.314546 27.8774 3.4033 24.3449 8.28955L24.2499 8.4208H5.30363C2.37863 8.4208 -0.00012207 10.7983 -0.00012207 13.722V54.6983C-0.00012207 57.622 2.37863 59.9995 5.30363 59.9995H39.6199C42.5399 59.9995 44.9174 57.6233 44.9174 54.7045V38.8195L45.1549 38.7595C53.7574 36.5683 59.9999 28.5433 59.9999 19.6795C59.9999 14.2345 57.8311 9.1733 53.8924 5.4258ZM8.5036 42.0733L8.4636 37.7983L12.7711 37.7583L12.8136 42.0733H8.5036ZM12.4949 35.8458H8.78235C7.55235 35.8458 6.54985 36.847 6.54985 38.077V41.7933C6.54985 43.0233 7.55235 44.0258 8.78235 44.0258H12.4949C13.7261 44.0258 14.7274 43.0233 14.7274 41.7933V38.077C14.7274 36.847 13.7261 35.8458 12.4949 35.8458ZM8.5036 31.2058L8.4636 26.9308L12.7711 26.8895L12.8136 31.2058H8.5036ZM12.4949 24.977H8.78235C7.55235 24.977 6.54985 25.9783 6.54985 27.2083V30.9245C6.54985 32.1558 7.55235 33.1583 8.78235 33.1583H12.4949C13.7261 33.1583 14.7274 32.1558 14.7274 30.9245V27.2083C14.7274 25.9783 13.7261 24.977 12.4949 24.977ZM31.8424 53.0433C31.8424 53.582 31.4049 54.0183 30.8661 54.0183H18.8986C18.3611 54.0183 17.9236 53.582 17.9236 53.0433C17.9236 52.5058 18.3611 52.0683 18.8986 52.0683H30.8661C31.4049 52.0683 31.8424 52.5058 31.8424 53.0433ZM41.2661 28.8258C41.4624 29.0208 41.5749 29.2958 41.5736 29.582C41.5724 29.8683 41.4624 30.1333 41.2599 30.332C40.8886 30.702 40.1399 30.7195 39.7474 30.3183C39.5449 30.1208 39.4361 29.8533 39.4399 29.5633C39.4436 29.2783 39.5586 29.0083 39.7636 28.817C39.9411 28.6395 40.1999 28.542 40.5124 28.5333C40.8074 28.5345 41.0811 28.6408 41.2661 28.8258ZM34.2374 48.5645C34.2374 49.102 33.7999 49.5395 33.2598 49.5395H18.8986C18.3611 49.5395 17.9236 49.102 17.9236 48.5645C17.9236 48.0258 18.3611 47.5883 18.8986 47.5883H33.2598C33.7999 47.5883 34.2374 48.0258 34.2374 48.5645ZM8.5036 52.942L8.4636 48.667L12.7711 48.627L12.8136 52.942H8.5036ZM12.4949 46.7133H8.78235C7.55235 46.7133 6.54985 47.7145 6.54985 48.9458V52.6608C6.54985 53.8908 7.55235 54.8933 8.78235 54.8933H12.4949C13.7261 54.8933 14.7274 53.8908 14.7274 52.6608V48.9458C14.7274 47.7145 13.7261 46.7133 12.4949 46.7133ZM8.5036 20.337L8.4636 16.0633L12.7711 16.022L12.8136 20.337H8.5036ZM12.4949 14.1095H8.78235C7.55235 14.1095 6.54985 15.1108 6.54985 16.3408V20.057C6.54985 21.287 7.55235 22.2883 8.78235 22.2883H12.4949C13.7261 22.2883 14.7274 21.287 14.7274 20.057V16.3408C14.7274 15.1108 13.7261 14.1095 12.4949 14.1095Z" fill="white"/>
</g>
</svg>
