<?xml version="1.0" encoding="UTF-8"?>
<svg xmlns="http://www.w3.org/2000/svg" version="1.1" viewBox="0 0 775.4 341.6">
  <defs>
    <style>
      .cls-1 {
        fill: #f29997;
        font-family: GEHeritageOne-Medium, 'GE Heritage One';
        font-size: 72px;
        font-weight: 500;
      }

      .cls-2 {
        fill: #5ac3c6;
      }
    </style>
  </defs>
  <!-- Generator: Adobe Illustrator 28.7.1, SVG Export Plug-In . SVG Version: 1.2.0 Build 142)  -->
  <g>
    <g id="Layer_1">
      <g>
        <path class="cls-2" d="M754.9,148.4c14-19.7,23.6-41.1,19.6-66.4-3.7-23.9-20.7-43.6-44.4-48.9-19.6-4.4-37.6.9-52.7,14.4-2.4,2.2-3.5,2.3-5.9.1-15.5-13.9-33.2-20.2-54.1-15.1-21.8,5.3-35.6,19.5-42.5,40.3-5.8,17.5-2.5,34.4,4.8,50.9,10.7,24,27.8,43.1,47.1,60.4,11,9.8,22.4,19,34.6,29.3-11.1,0-21,0-31,0-8.8,0-17.6-.8-26.2.4-10.9,1.4-26-.8-36.8-.7l4.2,30.2c28,0,56-.4,83.9-.6,3.9,0,5,1.7,5,7.8,0,15.2,0,9.9.1,14.1,0,2.9,0,2.5,0,5.7.3,7.2.2,9.3-3.6,9.8-9.8,1.3-19.6.9-29.4.8-3.2,0-4.2,1-3.9,4.6.4,4.8.5,9.6,0,14.4s.1,6.3,4.4,6.2c9.7-.3,19.4,0,29-.1,2.7,0,3.6.7,3.5,3.7-.3,9.2-.1,18.4-.2,27.6,0,2.2-.2,4.6,3.1,4.5,6.6-.2,13.1.5,19.7-.5,3-.5,3.4-1.8,3.4-4.1,0-6.1-.1-12.3-.2-18.4,0-12.7,0-12.6,12.8-12.8,7.9-.1,15.9,1,23.8-.9,1.6-.4,2.6-.8,2.6-2.5,0-6.4,0-12.9-.2-19.3,0-1.8-.9-2.5-2.9-2.4-10.3.5-20.5-.3-30.8-.8-4-.2-5.1-1.7-5.1-5.2,0-7.8,0-15.7,0-23.5,0-8.7.5-9.2,9.1-9.1,12.1,0,24.2-.2,36.3.8,2.5.2,4.6.5,4.2-4.5-.2-2.9,0-5.6,0-9,0-3.5-.3-7.2-.2-11.8.1-3.9,0-4.5-2.5-4.4-13.2.1-26.4,0-39.6,0-1.9,0-3.8,0-7,0,7.8-6.5,14.4-12.1,21.1-17.6,17.1-14.2,33.6-29.1,46.5-47.3ZM679.5,186.8c-3.1,2.5-5.4,3.2-9,.3-20.3-16.2-40.3-32.7-56.1-53.7-8.3-11.1-14.9-23.1-18-36.8-3.5-15.5,7.5-34.3,23.4-39.5,3.6-1.2,7.2-2.6,11.3-2.1,11.9.8,21.4,6.2,29.5,14.8,4.4,4.7,8.6,9.5,11.7,15.3,1.6,3,2.7,2.9,4.5-.1,6-10.1,13.3-19,24.1-24.4,23.1-11.5,47,2.3,50.5,27.6,1.2,8.6-.7,16.3-4.2,24-9.2,19.8-23.1,35.8-39.1,50.3-9.3,8.4-18.8,16.5-28.5,24.4Z"/>
        <path class="cls-2" d="M492.1,215.9c-4.2,0-6.1-1.9-6-6.2.2-5.7.3-11.4,0-17-1.3-19.9-7.9-37.1-26.2-47.7-7.2-4.2-15.4-5.6-23.6-6.6-26.1-3.1-48,5.3-66.7,23.4-2.5,2.4-4.7,5.5-8.3,7.3V0c-7.1,5.2-13.6,10.1-20.2,15-3.6,2.7-5.1,6.6-5.4,10.8-.5,7.8-1.2,15.6-1.2,23.4,0,47.3,0,94.6,0,141.9,0,4.2-.4,8.3-.9,12.4-1,7.6-5.6,11.5-13.3,11.7-3.2,0-6.5,0-9.7,0q-14.4.2-13.7-14c.7-12.5,0-24.9-5.6-36.4-4.6-9.3-10.2-18.2-20.1-22.4-19.5-8.5-42-5-56,12.6-11.3,14.2-16.8,30-13.3,48.3,1.6,8.4,1.1,9.3-7.2,11.4-2.2.6-4.4,1.1-6.6,1.1-.1,9.5-2.5,18.9-4.4,28.4,12,1.3,22.9-1.9,33.2-8.3,1.3-.8,2.6-2,4.1-.7,6.9,6.2,15.5,8.1,24.4,9.3,28.1,0,56.3,0,84.4-.1,1.9-.9,3.9-.5,5.9-.5,52.6,0,105.2,0,157.8-.1v-27.9c-.4,0-.8,0-1.3,0ZM267.3,209.4c-.5,1.9-1.5,3.6-3.3,4.1-7.9,2.3-15.9,3.2-23.7-.4-7.9-3.6-13-13.5-11.4-23.1,1.7-10,5.5-18.9,16.2-22.6,6.4-2.2,13.9.4,18,5.8,4.4,5.8,6,11.7,6,22,.4,4.3-.5,9.2-1.9,14.2ZM459,210.1c0,2.9-1.1,3.9-4.1,4.1-23.6,1.3-47.2.9-70.8.9-10,0-19.9,0-30.1,0,6.7-11.3,15.3-21.3,25.2-30.3,6.9-6.2,14-11.8,22.8-14.9,10.7-3.8,21.8-4.5,33-2.5,4.2.7,8.4,1.5,12.2,3.7,7.9,4.4,10.8,12,11.8,20.2.7,6.2,0,12.6.2,18.9Z"/>
        <path class="cls-2" d="M187.9,215.8c-7.4,0-15.4-3.5-16.8-12.9-1.3-8.9-1.4-24.6-1.1-33.5h-24.8c-1,.8-1.5,1.6-1.4,2.8.7,11.2-.5,22.4,1.3,33.5.8,5.3-.3,7-5.6,8.4-9.6,2.7-19.5,2.1-29.2,1.7-1.5,9.4-2.8,19.1-3.5,28.7,8.8.3,17.6-.6,26.4-.5,9.1.1,17.2-1.8,23.9-8,1.4-1.3,3.5-1.3,5-.2,5.4,4.1,11.6,6.8,18.4,8,1,.2,2.1.3,3.1.4,2-9.5,4.3-18.9,4.4-28.4,0,0-.1,0-.2,0Z"/>
        <path class="cls-2" d="M581.8,215.4c-7.4,0-15.4-3.5-16.8-12.9-1.3-8.9-1.4-24.6-1.1-33.5h-24.8c-1,.8-1.5,1.6-1.4,2.8.7,11.2-.5,22.4,1.3,33.5.8,5.3-.3,7-5.6,8.4-9.6,2.7-38.8,1.8-48.5,1.4-1.5,9.4.8,19.1,0,28.7,8.8.3,33.4-.3,42.2-.2,9.1.1,17.2-1.8,23.9-8,1.4-1.3,3.5-1.3,5-.2,5.4,4.1,8.8,6.5,15.6,7.6,1,.2,11.2-.2,12.2,0,2-9.5-1.9-11.7-1.8-21.2,0,0-.1-6.4-.2-6.4Z"/>
        <path class="cls-2" d="M107.4,215.7c-10.6-.4-14.8-5.1-15-15.7-.3-19.2-.1-38.4,0-57.6,0-3.1,0-5.2-4.2-5-6.3.4-12.6.2-18.9.1-16.6,0-32,3.9-45.5,14.1C5.8,165.1-2,183.1.4,205.2c.9,8.4,4.2,16.1,10.5,22.4,11.3,11.1,34.6,11.1,47.5,4.3,4.6-2.4,7.9-6.3,12-9.3,1.2,1.9,1.4,3.6,2.4,5,7.7,12.4,19.6,16.3,33.2,17,.2,0,.5,0,.7,0,.8-9.6,2-19.3,3.5-28.7-1,0-1.9,0-2.9-.1ZM67.2,193.3c-1.5,10-3.9,13.3-13.9,14.6-7.8,1-15.9,2-23.6-.9-5.1-2-8-8.7-6.6-14,4.6-16.7,17.4-23.3,32.8-26.5,3-.6,5.9-1.2,9.1-1.2,2.4,0,3.3.9,3.2,3.3-.1,3.1,0,6.1,0,10.3.2,4.1-.2,9.3-1,14.5Z"/>
        <path class="cls-2" d="M500.4,120.1c7.3,0,13.8,6.1,13.7,13.2,0,7-6.7,13.8-13.5,13.7-7.7-.1-14.2-6.5-14.2-14,0-7.2,6.1-12.8,13.9-12.9Z"/>
        <path class="cls-2" d="M124.2,120.1c7.3,0,13.8,6.1,13.7,13.2,0,7-6.7,13.8-13.5,13.7-7.7-.1-14.2-6.5-14.2-14,0-7.2,6.1-12.8,13.9-12.9Z"/>
        <path class="cls-2" d="M71.9,89.7c7.3,0,13.8,6.1,13.7,13.2,0,7-6.7,13.8-13.5,13.7-7.7-.1-14.2-6.5-14.2-14,0-7.2,6.1-12.8,13.9-12.9Z"/>
        <path class="cls-2" d="M36.7,89.7c7.3,0,13.8,6.1,13.7,13.2,0,7-6.7,13.8-13.5,13.7-7.7-.1-14.2-6.5-14.2-14,0-7.2,6.1-12.8,13.9-12.9Z"/>
        <path class="cls-2" d="M534.4,120.1c7.3,0,13.8,6.1,13.7,13.2,0,7-6.7,13.8-13.5,13.7-7.7-.1-14.2-6.5-14.2-14,0-7.2,6.1-12.8,13.9-12.9Z"/>
      </g>
      <text class="cls-1" transform="translate(22.8 306.9)"><tspan x="0" y="0">بوعي و صحة</tspan></text>
    </g>
  </g>
</svg>