<svg xmlns="http://www.w3.org/2000/svg" xmlns:xlink="http://www.w3.org/1999/xlink" width="500" zoomAndPan="magnify" viewBox="0 0 375 374.999991" height="500" preserveAspectRatio="xMidYMid meet" version="1.0"><defs><g/><clipPath id="c5d6fd792b"><path d="M 69.742188 106 L 183 106 L 183 190.898438 L 69.742188 190.898438 Z M 69.742188 106 " clip-rule="nonzero"/></clipPath><clipPath id="37b0d37d7e"><path d="M 74 101 L 187.140625 101 L 187.140625 186 L 74 186 Z M 74 101 " clip-rule="nonzero"/></clipPath><clipPath id="1a400ea420"><path d="M 71 100.898438 L 187.140625 100.898438 L 187.140625 189 L 71 189 Z M 71 100.898438 " clip-rule="nonzero"/></clipPath><clipPath id="b06bb0a67e"><path d="M 84.007812 257.222656 L 234.007812 257.222656 L 234.007812 295.472656 L 84.007812 295.472656 Z M 84.007812 257.222656 " clip-rule="nonzero"/></clipPath><clipPath id="031b6e8f36"><path d="M 225 134 L 289 134 L 289 207 L 225 207 Z M 225 134 " clip-rule="nonzero"/></clipPath><clipPath id="2f5e379b93"><path d="M 188.882812 125.765625 L 308.984375 102.945312 L 337.542969 253.257812 L 217.441406 276.078125 Z M 188.882812 125.765625 " clip-rule="nonzero"/></clipPath><clipPath id="0282b35d57"><path d="M 188.882812 125.765625 L 308.984375 102.945312 L 337.542969 253.257812 L 217.441406 276.078125 Z M 188.882812 125.765625 " clip-rule="nonzero"/></clipPath><clipPath id="a762eb38c4"><path d="M 207 173 L 270 173 L 270 238 L 207 238 Z M 207 173 " clip-rule="nonzero"/></clipPath><clipPath id="9250d40ed8"><path d="M 188.882812 125.765625 L 308.984375 102.945312 L 337.542969 253.257812 L 217.441406 276.078125 Z M 188.882812 125.765625 " clip-rule="nonzero"/></clipPath><clipPath id="fb30868d55"><path d="M 188.882812 125.765625 L 308.984375 102.945312 L 337.542969 253.257812 L 217.441406 276.078125 Z M 188.882812 125.765625 " clip-rule="nonzero"/></clipPath><clipPath id="b7bb4c67c7"><path d="M 206 172 L 271 172 L 271 239 L 206 239 Z M 206 172 " clip-rule="nonzero"/></clipPath><clipPath id="a7919d701c"><path d="M 188.882812 125.765625 L 308.984375 102.945312 L 337.542969 253.257812 L 217.441406 276.078125 Z M 188.882812 125.765625 " clip-rule="nonzero"/></clipPath><clipPath id="4aedbad947"><path d="M 188.882812 125.765625 L 308.984375 102.945312 L 337.542969 253.257812 L 217.441406 276.078125 Z M 188.882812 125.765625 " clip-rule="nonzero"/></clipPath><clipPath id="a73ff015cc"><path d="M 228 168 L 274 168 L 274 200 L 228 200 Z M 228 168 " clip-rule="nonzero"/></clipPath><clipPath id="c5c3943dcd"><path d="M 188.882812 125.765625 L 308.984375 102.945312 L 337.542969 253.257812 L 217.441406 276.078125 Z M 188.882812 125.765625 " clip-rule="nonzero"/></clipPath><clipPath id="ff6e3fb776"><path d="M 188.882812 125.765625 L 308.984375 102.945312 L 337.542969 253.257812 L 217.441406 276.078125 Z M 188.882812 125.765625 " clip-rule="nonzero"/></clipPath><clipPath id="8b7dce9b10"><path d="M 227 167 L 275 167 L 275 201 L 227 201 Z M 227 167 " clip-rule="nonzero"/></clipPath><clipPath id="e12bc363a0"><path d="M 188.882812 125.765625 L 308.984375 102.945312 L 337.542969 253.257812 L 217.441406 276.078125 Z M 188.882812 125.765625 " clip-rule="nonzero"/></clipPath><clipPath id="e4e3352dd3"><path d="M 188.882812 125.765625 L 308.984375 102.945312 L 337.542969 253.257812 L 217.441406 276.078125 Z M 188.882812 125.765625 " clip-rule="nonzero"/></clipPath><clipPath id="dacd1de02a"><path d="M 241 203 L 264 203 L 264 264 L 241 264 Z M 241 203 " clip-rule="nonzero"/></clipPath><clipPath id="3ef659e043"><path d="M 188.882812 125.765625 L 308.984375 102.945312 L 337.542969 253.257812 L 217.441406 276.078125 Z M 188.882812 125.765625 " clip-rule="nonzero"/></clipPath><clipPath id="9a796c8fa3"><path d="M 188.882812 125.765625 L 308.984375 102.945312 L 337.542969 253.257812 L 217.441406 276.078125 Z M 188.882812 125.765625 " clip-rule="nonzero"/></clipPath><clipPath id="94487cce37"><path d="M 241 202 L 265 202 L 265 265 L 241 265 Z M 241 202 " clip-rule="nonzero"/></clipPath><clipPath id="35410a5a1c"><path d="M 188.882812 125.765625 L 308.984375 102.945312 L 337.542969 253.257812 L 217.441406 276.078125 Z M 188.882812 125.765625 " clip-rule="nonzero"/></clipPath><clipPath id="c53d5597aa"><path d="M 188.882812 125.765625 L 308.984375 102.945312 L 337.542969 253.257812 L 217.441406 276.078125 Z M 188.882812 125.765625 " clip-rule="nonzero"/></clipPath><clipPath id="dfc35a32fc"><path d="M 221 252 L 298 252 L 298 274 L 221 274 Z M 221 252 " clip-rule="nonzero"/></clipPath><clipPath id="70393e8150"><path d="M 188.882812 125.765625 L 308.984375 102.945312 L 337.542969 253.257812 L 217.441406 276.078125 Z M 188.882812 125.765625 " clip-rule="nonzero"/></clipPath><clipPath id="aae8997a6e"><path d="M 188.882812 125.765625 L 308.984375 102.945312 L 337.542969 253.257812 L 217.441406 276.078125 Z M 188.882812 125.765625 " clip-rule="nonzero"/></clipPath><clipPath id="566fdac47e"><path d="M 220 251 L 299 251 L 299 275 L 220 275 Z M 220 251 " clip-rule="nonzero"/></clipPath><clipPath id="f84d56e390"><path d="M 188.882812 125.765625 L 308.984375 102.945312 L 337.542969 253.257812 L 217.441406 276.078125 Z M 188.882812 125.765625 " clip-rule="nonzero"/></clipPath><clipPath id="a36d89a05f"><path d="M 188.882812 125.765625 L 308.984375 102.945312 L 337.542969 253.257812 L 217.441406 276.078125 Z M 188.882812 125.765625 " clip-rule="nonzero"/></clipPath><clipPath id="3ca534e3b2"><path d="M 223 182 L 240 182 L 240 199 L 223 199 Z M 223 182 " clip-rule="nonzero"/></clipPath><clipPath id="16b804d8b2"><path d="M 188.882812 125.765625 L 308.984375 102.945312 L 337.542969 253.257812 L 217.441406 276.078125 Z M 188.882812 125.765625 " clip-rule="nonzero"/></clipPath><clipPath id="dd35a2e250"><path d="M 188.882812 125.765625 L 308.984375 102.945312 L 337.542969 253.257812 L 217.441406 276.078125 Z M 188.882812 125.765625 " clip-rule="nonzero"/></clipPath><clipPath id="9ad640845d"><path d="M 222 181 L 241 181 L 241 200 L 222 200 Z M 222 181 " clip-rule="nonzero"/></clipPath><clipPath id="cf0d1810e0"><path d="M 188.882812 125.765625 L 308.984375 102.945312 L 337.542969 253.257812 L 217.441406 276.078125 Z M 188.882812 125.765625 " clip-rule="nonzero"/></clipPath><clipPath id="b4fa6d20f6"><path d="M 188.882812 125.765625 L 308.984375 102.945312 L 337.542969 253.257812 L 217.441406 276.078125 Z M 188.882812 125.765625 " clip-rule="nonzero"/></clipPath><clipPath id="660a4f26a6"><path d="M 260 107 L 315 107 L 315 158 L 260 158 Z M 260 107 " clip-rule="nonzero"/></clipPath><clipPath id="7464c7cc51"><path d="M 188.882812 125.765625 L 308.984375 102.945312 L 337.542969 253.257812 L 217.441406 276.078125 Z M 188.882812 125.765625 " clip-rule="nonzero"/></clipPath><clipPath id="b65addea6e"><path d="M 188.882812 125.765625 L 308.984375 102.945312 L 337.542969 253.257812 L 217.441406 276.078125 Z M 188.882812 125.765625 " clip-rule="nonzero"/></clipPath><clipPath id="d3870a5121"><path d="M 213 148 L 229 148 L 229 172 L 213 172 Z M 213 148 " clip-rule="nonzero"/></clipPath><clipPath id="183c10501e"><path d="M 188.882812 125.765625 L 308.984375 102.945312 L 337.542969 253.257812 L 217.441406 276.078125 Z M 188.882812 125.765625 " clip-rule="nonzero"/></clipPath><clipPath id="9600d61ff2"><path d="M 188.882812 125.765625 L 308.984375 102.945312 L 337.542969 253.257812 L 217.441406 276.078125 Z M 188.882812 125.765625 " clip-rule="nonzero"/></clipPath><clipPath id="6511a62e8c"><path d="M 210 172 L 220 172 L 220 182 L 210 182 Z M 210 172 " clip-rule="nonzero"/></clipPath><clipPath id="e4907d7c30"><path d="M 188.882812 125.765625 L 308.984375 102.945312 L 337.542969 253.257812 L 217.441406 276.078125 Z M 188.882812 125.765625 " clip-rule="nonzero"/></clipPath><clipPath id="faa0cccc45"><path d="M 188.882812 125.765625 L 308.984375 102.945312 L 337.542969 253.257812 L 217.441406 276.078125 Z M 188.882812 125.765625 " clip-rule="nonzero"/></clipPath><clipPath id="c4689442e4"><path d="M 265 213 L 294 213 L 294 238 L 265 238 Z M 265 213 " clip-rule="nonzero"/></clipPath><clipPath id="f55de227e7"><path d="M 188.882812 125.765625 L 308.984375 102.945312 L 337.542969 253.257812 L 217.441406 276.078125 Z M 188.882812 125.765625 " clip-rule="nonzero"/></clipPath><clipPath id="2a6df2bbff"><path d="M 188.882812 125.765625 L 308.984375 102.945312 L 337.542969 253.257812 L 217.441406 276.078125 Z M 188.882812 125.765625 " clip-rule="nonzero"/></clipPath><clipPath id="93e408a7ee"><path d="M 233 242 L 242 242 L 242 252 L 233 252 Z M 233 242 " clip-rule="nonzero"/></clipPath><clipPath id="c8d7df194c"><path d="M 188.882812 125.765625 L 308.984375 102.945312 L 337.542969 253.257812 L 217.441406 276.078125 Z M 188.882812 125.765625 " clip-rule="nonzero"/></clipPath><clipPath id="39bbcfc2aa"><path d="M 188.882812 125.765625 L 308.984375 102.945312 L 337.542969 253.257812 L 217.441406 276.078125 Z M 188.882812 125.765625 " clip-rule="nonzero"/></clipPath><clipPath id="adac28605d"><path d="M 218 283 L 232.777344 283 L 232.777344 306.351562 L 218 306.351562 Z M 218 283 " clip-rule="nonzero"/></clipPath><clipPath id="f587c6e0c9"><path d="M 218 274.101562 L 220 274.101562 L 220 280 L 218 280 Z M 218 274.101562 " clip-rule="nonzero"/></clipPath><clipPath id="5c55543a66"><path d="M 208.777344 283 L 215 283 L 215 285 L 208.777344 285 Z M 208.777344 283 " clip-rule="nonzero"/></clipPath><clipPath id="a2160de30b"><path d="M 112 284 L 202 284 L 202 284.226562 L 112 284.226562 Z M 125.464844 284.226562 L 168.613281 284.226562 L 168.613281 287 L 125.464844 287 Z M 112 284.226562 L 115.628906 284.226562 L 115.628906 287 L 112 287 Z M 112 284.226562 " clip-rule="nonzero"/></clipPath></defs><rect x="-37.5" width="450" fill="#ffffff" y="-37.499999" height="449.999989" fill-opacity="1"/><rect x="-37.5" width="450" fill="#1f8fa0" y="-37.499999" height="449.999989" fill-opacity="1"/><g clip-path="url(#c5d6fd792b)"><path fill="#d9e3e9" d="M 74.910156 106.1875 L 182.46875 106.1875 L 176.945312 169.605469 L 160.652344 169.605469 L 165.019531 190.53125 L 132.007812 169.605469 L 69.390625 169.605469 Z M 74.910156 106.1875 " fill-opacity="1" fill-rule="nonzero"/></g><g clip-path="url(#37b0d37d7e)"><path fill="#4db9c4" d="M 79.671875 101.140625 L 187.230469 101.140625 L 181.707031 164.558594 L 165.414062 164.558594 L 169.777344 185.484375 L 136.765625 164.558594 L 74.148438 164.558594 Z M 79.671875 101.140625 " fill-opacity="1" fill-rule="nonzero"/></g><g clip-path="url(#1a400ea420)"><path stroke-linecap="butt" transform="matrix(-0.047612, 0, 0, 0.047612, 199.703091, 74.429863)" fill="none" stroke-linejoin="miter" d="M 2521.028864 561.009075 L 261.963868 561.009075 L 377.973234 1892.983661 L 720.176252 1892.983661 L 628.533775 2332.490151 L 1321.882542 1892.983661 L 2637.038231 1892.983661 Z M 2521.028864 561.009075 " stroke="#000000" stroke-width="10" stroke-opacity="1" stroke-miterlimit="4"/></g><g fill="#102a4f" fill-opacity="1"><g transform="translate(79.811537, 147.845033)"><g><path d="M 13.484375 -32.703125 L 10.53125 -29.734375 L 7.59375 -32.65625 L 4.671875 -29.734375 L 1.71875 -32.703125 L 4.671875 -35.671875 L 7.59375 -32.75 L 10.53125 -35.671875 Z M 9.8125 0 L 9.8125 -9.484375 L 8.609375 -3.546875 L 0.328125 -3.546875 L 0.328125 -24.84375 L 21.640625 -27.234375 L 21.640625 0 Z M 6.265625 -15.40625 L 6.84375 -15.40625 L 6.84375 -21.296875 L 6.265625 -21.296875 Z M 6.265625 -15.40625 "/></g></g></g><g fill="#102a4f" fill-opacity="1"><g transform="translate(101.44438, 147.845033)"><g><path d="M 6.34375 -26.484375 L 3.390625 -29.4375 L 6.34375 -32.40625 L 9.3125 -29.4375 Z M -2.921875 0 L -2.921875 -11.8125 L 0.625 -11.8125 L 0.625 -19.546875 L 12.453125 -21.296875 L 12.453125 0 Z M -2.921875 0 "/></g></g></g><g fill="#102a4f" fill-opacity="1"><g transform="translate(114.223628, 147.845033)"><g><path d="M 0.328125 0 L 0.328125 -30.828125 L 12.15625 -32.578125 L 12.15625 0 Z M 0.328125 0 "/></g></g></g><g fill="#102a4f" fill-opacity="1"><g transform="translate(126.376441, 147.845033)"><g><path d="M 16.40625 -32.578125 L 13.453125 -29.609375 L 10.53125 -32.53125 L 7.59375 -29.609375 L 4.640625 -32.578125 L 7.59375 -35.546875 L 10.53125 -32.625 L 13.453125 -35.546875 Z M -2.921875 0 L -2.921875 -11.8125 L 13.03125 -11.8125 L 13.03125 -12.453125 L 0.625 -12.453125 L 0.625 -26.0625 L 18.96875 -27.8125 L 18.96875 0 Z M 12.453125 -17.75 L 13.03125 -17.75 L 13.03125 -21.890625 L 12.453125 -21.890625 Z M 12.453125 -17.75 "/></g></g></g><g fill="#102a4f" fill-opacity="1"><g transform="translate(145.336497, 147.845033)"><g><path d="M -2.921875 0 L -2.921875 -11.8125 L 0.578125 -11.8125 L 0.578125 -30.828125 L 12.453125 -32.578125 L 12.453125 0 L 8.015625 0 L 7.390625 -6.515625 L 6.8125 0 Z M -2.921875 0 "/></g></g></g><g fill="#102a4f" fill-opacity="1"><g transform="translate(157.781646, 147.845033)"><g><path d="M 16.40625 -32.578125 L 13.453125 -29.609375 L 10.53125 -32.53125 L 7.59375 -29.609375 L 4.640625 -32.578125 L 7.59375 -35.546875 L 10.53125 -32.625 L 13.453125 -35.546875 Z M -2.921875 0 L -2.921875 -11.8125 L 13.03125 -11.8125 L 13.03125 -12.453125 L 0.625 -12.453125 L 0.625 -26.0625 L 18.96875 -27.8125 L 18.96875 0 Z M 12.453125 -17.75 L 13.03125 -17.75 L 13.03125 -21.890625 L 12.453125 -21.890625 Z M 12.453125 -17.75 "/></g></g></g><g fill="#000000" fill-opacity="1"><g transform="translate(193.602725, 112.735838)"><g><path d="M 15.96875 5.71875 L 5.078125 5.25 L 0.265625 0.46875 L 0.265625 -6.15625 L 5.078125 -9.515625 L 8.3125 -9.515625 L 4.96875 -12.375 L 4.96875 -19.53125 L 19.765625 -19.53125 L 19.765625 -12.375 L 16.40625 -9.515625 L 19.765625 -9.515625 L 19.765625 0 L 13.890625 0 L 13.421875 -5.25 L 12.953125 0 L 5.046875 0 L 5.046875 0.46875 L 15.96875 0.46875 Z M 13.078125 -9.515625 L 13.546875 -9.515625 L 13.546875 -12.375 L 13.078125 -12.375 Z M 13.078125 -9.515625 "/></g></g></g><g fill="#000000" fill-opacity="1"><g transform="translate(213.375637, 112.735838)"><g><path d="M -2.359375 0 L -2.359375 -9.515625 L 0.5 -9.515625 L 0.5 -16.4375 L 15.265625 -17.859375 L 15.265625 0 L 5.515625 0 L 5.046875 -5.25 L 4.546875 0 Z M 5.28125 -9.515625 L 5.75 -9.515625 L 5.75 -13.078125 L 5.28125 -13.078125 Z M 5.28125 -9.515625 "/></g></g></g><g fill="#ffffff" fill-opacity="1"><g transform="translate(191.118408, 110.863773)"><g><path d="M 15.96875 5.71875 L 5.078125 5.25 L 0.265625 0.46875 L 0.265625 -6.15625 L 5.078125 -9.515625 L 8.3125 -9.515625 L 4.96875 -12.375 L 4.96875 -19.53125 L 19.765625 -19.53125 L 19.765625 -12.375 L 16.40625 -9.515625 L 19.765625 -9.515625 L 19.765625 0 L 13.890625 0 L 13.421875 -5.25 L 12.953125 0 L 5.046875 0 L 5.046875 0.46875 L 15.96875 0.46875 Z M 13.078125 -9.515625 L 13.546875 -9.515625 L 13.546875 -12.375 L 13.078125 -12.375 Z M 13.078125 -9.515625 "/></g></g></g><g fill="#ffffff" fill-opacity="1"><g transform="translate(210.89132, 110.863773)"><g><path d="M -2.359375 0 L -2.359375 -9.515625 L 0.5 -9.515625 L 0.5 -16.4375 L 15.265625 -17.859375 L 15.265625 0 L 5.515625 0 L 5.046875 -5.25 L 4.546875 0 Z M 5.28125 -9.515625 L 5.75 -9.515625 L 5.75 -13.078125 L 5.28125 -13.078125 Z M 5.28125 -9.515625 "/></g></g></g><g clip-path="url(#b06bb0a67e)"><path fill="#ffffff" d="M 84.007812 274.234375 C 84.007812 264.84375 91.546875 257.230469 100.84375 257.230469 L 217.171875 257.230469 C 226.472656 257.230469 234.007812 264.84375 234.007812 274.234375 L 234.007812 278.472656 C 234.007812 287.859375 226.472656 295.46875 217.179688 295.46875 L 100.84375 295.46875 C 91.546875 295.46875 84.007812 287.855469 84.007812 278.464844 Z M 84.007812 274.234375 " fill-opacity="1" fill-rule="nonzero"/></g><g clip-path="url(#031b6e8f36)"><g clip-path="url(#2f5e379b93)"><g clip-path="url(#0282b35d57)"><path fill="#d9e3e9" d="M 288.539062 153.074219 C 286.152344 140.515625 274.214844 132.234375 261.871094 134.582031 C 253.375 136.195312 246.90625 142.421875 244.476562 150.246094 L 226.117188 181.992188 C 225.242188 183.511719 225.988281 185.632812 227.78125 186.710938 L 260 206.097656 C 261.792969 207.171875 263.972656 206.8125 264.851562 205.300781 L 284.953125 170.539062 C 288.28125 165.632812 289.742188 159.414062 288.539062 153.074219 Z M 288.539062 153.074219 " fill-opacity="1" fill-rule="nonzero"/></g></g></g><g clip-path="url(#a762eb38c4)"><g clip-path="url(#9250d40ed8)"><g clip-path="url(#fb30868d55)"><path fill="#102a4f" d="M 267.292969 193.683594 L 234.582031 174.386719 C 232.761719 173.316406 230.542969 173.679688 229.644531 175.203125 L 207.671875 212.449219 C 206.777344 213.96875 207.53125 216.089844 209.347656 217.160156 L 209.757812 217.402344 C 210.984375 223.492188 215.285156 229.542969 221.878906 233.464844 C 228.539062 237.425781 235.984375 238.292969 241.949219 236.394531 L 242.054688 236.457031 C 243.875 237.527344 246.09375 237.164062 246.992188 235.648438 L 249.289062 231.757812 C 249.90625 231.0625 250.464844 230.300781 250.953125 229.480469 C 251.457031 228.636719 251.863281 227.753906 252.183594 226.847656 L 268.964844 198.398438 C 269.863281 196.878906 269.109375 194.757812 267.292969 193.683594 Z M 267.292969 193.683594 " fill-opacity="1" fill-rule="nonzero"/></g></g></g><g clip-path="url(#b7bb4c67c7)"><g clip-path="url(#a7919d701c)"><g clip-path="url(#4aedbad947)"><path fill="#d9e3e9" d="M 245.128906 237.914062 C 244.082031 238.113281 242.914062 237.953125 241.84375 237.394531 C 235.496094 239.277344 227.890625 238.117188 221.410156 234.261719 C 215 230.453125 210.363281 224.398438 208.933594 217.992188 L 208.878906 217.960938 C 206.617188 216.625 205.71875 213.941406 206.878906 211.976562 L 228.847656 174.730469 C 229.421875 173.753906 230.402344 173.113281 231.621094 172.90625 C 232.773438 172.71875 233.992188 172.960938 235.058594 173.589844 L 267.765625 192.886719 C 268.832031 193.515625 269.636719 194.46875 270.027344 195.5625 C 270.4375 196.71875 270.347656 197.894531 269.773438 198.871094 L 253.039062 227.238281 C 252.695312 228.183594 252.265625 229.101562 251.761719 229.953125 C 251.265625 230.785156 250.691406 231.570312 250.054688 232.300781 L 247.804688 236.113281 C 247.21875 237.089844 246.242188 237.703125 245.128906 237.914062 Z M 242.0625 235.382812 L 242.527344 235.65625 C 243.886719 236.457031 245.566406 236.234375 246.195312 235.171875 L 248.59375 231.132812 C 249.179688 230.476562 249.707031 229.757812 250.15625 229.003906 C 250.613281 228.230469 251.003906 227.398438 251.308594 226.53125 L 251.382812 226.367188 L 268.164062 197.925781 C 268.453125 197.429688 268.492188 196.8125 268.269531 196.183594 C 268.023438 195.492188 267.507812 194.890625 266.816406 194.484375 L 234.105469 175.1875 C 233.414062 174.777344 232.632812 174.621094 231.914062 174.738281 C 231.261719 174.847656 230.734375 175.175781 230.445312 175.675781 L 208.476562 212.921875 C 207.847656 213.984375 208.464844 215.558594 209.820312 216.363281 L 210.589844 216.816406 L 210.671875 217.222656 C 211.890625 223.265625 216.257812 229.042969 222.359375 232.667969 C 228.527344 236.335938 235.742188 237.394531 241.671875 235.507812 Z M 242.0625 235.382812 " fill-opacity="1" fill-rule="nonzero"/></g></g></g><g clip-path="url(#a73ff015cc)"><g clip-path="url(#c5c3943dcd)"><g clip-path="url(#ff6e3fb776)"><path fill="#102a4f" d="M 266.726562 198.882812 L 230.300781 177.394531 C 228.484375 176.324219 227.871094 173.957031 228.945312 172.140625 L 230.226562 169.976562 C 231.296875 168.15625 233.664062 167.546875 235.476562 168.621094 L 271.910156 190.109375 C 273.726562 191.179688 274.335938 193.546875 273.261719 195.363281 L 271.984375 197.53125 C 270.910156 199.34375 268.542969 199.957031 266.726562 198.882812 Z M 266.726562 198.882812 " fill-opacity="1" fill-rule="nonzero"/></g></g></g><g clip-path="url(#8b7dce9b10)"><g clip-path="url(#e12bc363a0)"><g clip-path="url(#e4e3352dd3)"><path fill="#d9e3e9" d="M 269.5625 200.257812 C 268.464844 200.464844 267.289062 200.292969 266.253906 199.679688 L 229.828125 178.195312 C 227.566406 176.859375 226.808594 173.933594 228.144531 171.667969 L 229.421875 169.5 C 230.066406 168.40625 231.101562 167.628906 232.335938 167.3125 C 233.578125 166.996094 234.855469 167.175781 235.949219 167.820312 L 272.378906 189.308594 C 274.640625 190.644531 275.394531 193.570312 274.0625 195.835938 L 272.785156 198.003906 C 272.058594 199.226562 270.867188 200.011719 269.5625 200.257812 Z M 232.992188 169.070312 C 232.929688 169.082031 232.867188 169.097656 232.800781 169.113281 C 232.046875 169.308594 231.414062 169.78125 231.023438 170.449219 L 229.746094 172.613281 C 228.933594 173.996094 229.390625 175.78125 230.773438 176.59375 L 267.199219 198.082031 C 268.582031 198.894531 270.367188 198.4375 271.183594 197.054688 L 272.460938 194.886719 C 273.277344 193.503906 272.816406 191.71875 271.433594 190.90625 L 235.003906 169.417969 C 234.398438 169.058594 233.6875 168.9375 232.992188 169.070312 Z M 232.992188 169.070312 " fill-opacity="1" fill-rule="nonzero"/></g></g></g><g clip-path="url(#dacd1de02a)"><g clip-path="url(#3ef659e043)"><g clip-path="url(#9a796c8fa3)"><path fill="#102a4f" d="M 260.28125 262.785156 L 256.234375 263.554688 C 254.226562 263.933594 252.269531 262.605469 251.886719 260.59375 L 241.992188 208.507812 C 241.609375 206.5 242.941406 204.542969 244.949219 204.160156 L 248.996094 203.390625 C 251.003906 203.011719 252.960938 204.34375 253.34375 206.351562 L 263.238281 258.4375 C 263.621094 260.445312 262.289062 262.402344 260.28125 262.785156 Z M 260.28125 262.785156 " fill-opacity="1" fill-rule="nonzero"/></g></g></g><g clip-path="url(#94487cce37)"><g clip-path="url(#35410a5a1c)"><g clip-path="url(#c53d5597aa)"><path fill="#d9e3e9" d="M 259.726562 263.835938 L 257.140625 264.328125 C 254.21875 264.882812 251.390625 262.960938 250.835938 260.039062 L 241.214844 209.410156 C 240.660156 206.488281 242.585938 203.660156 245.507812 203.105469 L 248.09375 202.613281 C 251.015625 202.058594 253.84375 203.980469 254.398438 206.90625 L 264.015625 257.53125 C 264.570312 260.457031 262.644531 263.28125 259.726562 263.835938 Z M 245.855469 204.933594 C 243.941406 205.296875 242.679688 207.152344 243.042969 209.066406 L 252.664062 259.691406 C 253.027344 261.605469 254.878906 262.867188 256.792969 262.503906 L 259.378906 262.011719 C 261.292969 261.648438 262.554688 259.796875 262.191406 257.882812 L 252.570312 207.253906 C 252.207031 205.34375 250.355469 204.078125 248.441406 204.445312 Z M 245.855469 204.933594 " fill-opacity="1" fill-rule="nonzero"/></g></g></g><g clip-path="url(#dfc35a32fc)"><g clip-path="url(#70393e8150)"><g clip-path="url(#aae8997a6e)"><path fill="#102a4f" d="M 294.03125 260.679688 L 226.855469 273.445312 C 224.519531 273.886719 222.347656 272.839844 222.023438 271.117188 L 221.632812 269.0625 C 221.304688 267.339844 222.945312 265.566406 225.273438 265.125 L 292.449219 252.359375 C 294.78125 251.917969 296.953125 252.964844 297.28125 254.6875 L 297.671875 256.742188 C 298 258.464844 296.363281 260.238281 294.03125 260.679688 Z M 294.03125 260.679688 " fill-opacity="1" fill-rule="nonzero"/></g></g></g><g clip-path="url(#566fdac47e)"><g clip-path="url(#f84d56e390)"><g clip-path="url(#a36d89a05f)"><path fill="#d9e3e9" d="M 294.207031 261.59375 L 227.027344 274.359375 C 224.1875 274.898438 221.53125 273.523438 221.109375 271.289062 L 220.71875 269.234375 C 220.292969 267.003906 222.261719 264.75 225.101562 264.210938 L 292.273438 251.449219 C 295.113281 250.90625 297.769531 252.285156 298.195312 254.515625 L 298.585938 256.570312 C 299.011719 258.800781 297.046875 261.054688 294.207031 261.59375 Z M 225.449219 266.039062 C 223.644531 266.382812 222.316406 267.6875 222.546875 268.890625 L 222.9375 270.945312 C 223.164062 272.148438 224.878906 272.875 226.683594 272.535156 L 293.855469 259.769531 C 295.660156 259.429688 296.988281 258.121094 296.757812 256.921875 L 296.367188 254.863281 C 296.140625 253.664062 294.425781 252.933594 292.621094 253.277344 Z M 225.449219 266.039062 " fill-opacity="1" fill-rule="nonzero"/></g></g></g><g clip-path="url(#3ca534e3b2)"><g clip-path="url(#16b804d8b2)"><g clip-path="url(#dd35a2e250)"><path fill="#4627bd" d="M 239.050781 189.140625 C 239.144531 189.636719 239.1875 190.140625 239.183594 190.644531 C 239.179688 191.152344 239.125 191.652344 239.023438 192.148438 C 238.921875 192.644531 238.769531 193.125 238.574219 193.589844 C 238.375 194.054688 238.132812 194.496094 237.847656 194.914062 C 237.566406 195.332031 237.242188 195.71875 236.882812 196.074219 C 236.519531 196.429688 236.128906 196.742188 235.707031 197.023438 C 235.28125 197.300781 234.835938 197.53125 234.367188 197.722656 C 233.898438 197.910156 233.417969 198.054688 232.917969 198.148438 C 232.421875 198.242188 231.921875 198.289062 231.414062 198.28125 C 230.910156 198.277344 230.410156 198.226562 229.914062 198.121094 C 229.417969 198.019531 228.9375 197.867188 228.472656 197.671875 C 228.007812 197.472656 227.566406 197.234375 227.144531 196.949219 C 226.726562 196.664062 226.339844 196.339844 225.988281 195.980469 C 225.632812 195.621094 225.316406 195.226562 225.039062 194.804688 C 224.761719 194.382812 224.527344 193.933594 224.339844 193.464844 C 224.148438 192.996094 224.007812 192.515625 223.914062 192.019531 C 223.820312 191.519531 223.773438 191.019531 223.777344 190.511719 C 223.78125 190.007812 223.835938 189.507812 223.9375 189.011719 C 224.042969 188.515625 224.191406 188.035156 224.390625 187.570312 C 224.585938 187.105469 224.828125 186.664062 225.113281 186.246094 C 225.398438 185.828125 225.71875 185.441406 226.082031 185.085938 C 226.441406 184.730469 226.832031 184.414062 227.257812 184.136719 C 227.679688 183.859375 228.125 183.625 228.59375 183.4375 C 229.0625 183.246094 229.546875 183.105469 230.042969 183.011719 C 230.539062 182.917969 231.042969 182.871094 231.546875 182.875 C 232.054688 182.878906 232.554688 182.933594 233.050781 183.039062 C 233.542969 183.140625 234.023438 183.289062 234.488281 183.488281 C 234.957031 183.683594 235.398438 183.925781 235.816406 184.210938 C 236.234375 184.496094 236.621094 184.820312 236.976562 185.179688 C 237.328125 185.539062 237.644531 185.933594 237.921875 186.355469 C 238.199219 186.777344 238.433594 187.222656 238.625 187.691406 C 238.8125 188.160156 238.953125 188.644531 239.050781 189.140625 Z M 239.050781 189.140625 " fill-opacity="1" fill-rule="nonzero"/></g></g></g><g clip-path="url(#9ad640845d)"><g clip-path="url(#cf0d1810e0)"><g clip-path="url(#b4fa6d20f6)"><path fill="#d9e3e9" d="M 233.09375 199.0625 C 228.417969 199.949219 223.886719 196.867188 223 192.191406 C 222.109375 187.515625 225.195312 182.988281 229.871094 182.097656 C 234.546875 181.210938 239.074219 184.292969 239.960938 188.96875 C 240.851562 193.644531 237.773438 198.171875 233.09375 199.0625 Z M 230.214844 183.925781 C 226.546875 184.621094 224.128906 188.175781 224.824219 191.84375 C 225.523438 195.511719 229.078125 197.929688 232.746094 197.234375 C 236.414062 196.539062 238.832031 192.984375 238.136719 189.316406 C 237.441406 185.644531 233.886719 183.226562 230.214844 183.925781 Z M 230.214844 183.925781 " fill-opacity="1" fill-rule="nonzero"/></g></g></g><g clip-path="url(#660a4f26a6)"><g clip-path="url(#7464c7cc51)"><g clip-path="url(#b65addea6e)"><path fill="#102a4f" d="M 286.9375 107.886719 C 287.125 107.242188 287.910156 106.960938 288.503906 107.144531 C 289.171875 107.355469 289.402344 108.089844 289.246094 108.710938 C 288.671875 110.847656 288.097656 112.992188 287.527344 115.132812 C 287.339844 115.777344 286.554688 116.054688 285.960938 115.875 C 285.292969 115.660156 285.0625 114.929688 285.21875 114.308594 C 285.796875 112.117188 286.339844 110 286.9375 107.886719 Z M 283.9375 120.851562 C 282.792969 125.136719 281.699219 129.425781 280.554688 133.707031 C 280.394531 134.328125 280.628906 135.007812 281.296875 135.273438 C 281.859375 135.480469 282.675781 135.175781 282.859375 134.53125 C 284.007812 130.246094 285.101562 125.957031 286.246094 121.675781 C 286.402344 121.054688 286.171875 120.378906 285.503906 120.109375 C 284.941406 119.90625 284.121094 120.207031 283.9375 120.851562 Z M 274.628906 131.027344 C 275.148438 125.375 275.695312 119.746094 276.242188 114.121094 C 276.394531 112.578125 273.984375 112.375 273.832031 113.917969 C 273.285156 119.546875 272.738281 125.171875 272.21875 130.824219 C 272.0625 132.371094 274.472656 132.570312 274.628906 131.027344 Z M 264.980469 129.015625 C 264.242188 125.839844 263.472656 122.691406 262.757812 119.546875 C 262.601562 118.898438 262.03125 118.457031 261.339844 118.558594 C 260.75 118.664062 260.191406 119.332031 260.351562 119.976562 C 261.089844 123.152344 261.859375 126.304688 262.570312 129.449219 C 262.730469 130.09375 263.300781 130.535156 263.992188 130.4375 C 264.609375 130.304688 265.113281 129.632812 264.980469 129.015625 Z M 288.4375 140.667969 C 291.621094 138.269531 294.820312 135.894531 298.03125 133.46875 C 298.566406 133.066406 298.585938 132.222656 298.175781 131.738281 C 297.722656 131.199219 296.980469 131.191406 296.445312 131.59375 C 293.265625 133.992188 290.0625 136.363281 286.851562 138.792969 C 286.316406 139.195312 286.300781 140.039062 286.707031 140.523438 C 287.167969 141.0625 287.90625 141.070312 288.4375 140.667969 Z M 304.382812 128.484375 C 306.878906 126.660156 309.355469 124.808594 311.851562 122.984375 C 312.386719 122.582031 312.40625 121.738281 311.996094 121.253906 C 311.542969 120.71875 310.828125 120.738281 310.265625 121.109375 C 307.769531 122.9375 305.292969 124.789062 302.792969 126.609375 C 302.261719 127.011719 302.242188 127.855469 302.652344 128.339844 C 303.109375 128.878906 303.847656 128.890625 304.382812 128.484375 Z M 294.949219 148.066406 C 297.339844 147.210938 299.707031 146.378906 302.097656 145.519531 C 302.699219 145.304688 302.953125 144.453125 302.679688 143.90625 C 302.339844 143.269531 301.691406 143.085938 301.070312 143.324219 C 298.675781 144.179688 296.3125 145.011719 293.917969 145.871094 C 293.320312 146.085938 293.066406 146.933594 293.335938 147.484375 C 293.652344 148.089844 294.296875 148.273438 294.949219 148.066406 Z M 296.3125 157.726562 C 296.601562 157.726562 296.867188 157.695312 297.1875 157.667969 C 297.347656 157.628906 297.507812 157.589844 297.625 157.496094 C 297.761719 157.425781 297.902344 157.304688 297.96875 157.152344 C 298.058594 157.03125 298.125 156.875 298.136719 156.71875 C 298.171875 156.589844 298.183594 156.433594 298.144531 156.273438 C 298.101562 156.164062 298.082031 156.082031 298.039062 155.972656 C 297.949219 155.757812 297.804688 155.585938 297.628906 155.488281 C 297.53125 155.429688 297.453125 155.398438 297.351562 155.335938 C 297.144531 155.265625 296.9375 155.246094 296.722656 155.285156 C 296.433594 155.285156 296.167969 155.316406 295.847656 155.34375 C 295.6875 155.382812 295.527344 155.417969 295.410156 155.515625 C 295.273438 155.585938 295.132812 155.707031 295.066406 155.855469 C 294.976562 155.980469 294.910156 156.136719 294.898438 156.292969 C 294.863281 156.421875 294.851562 156.578125 294.890625 156.738281 C 294.933594 156.847656 294.953125 156.929688 294.996094 157.039062 C 295.085938 157.253906 295.230469 157.425781 295.40625 157.523438 C 295.503906 157.582031 295.578125 157.613281 295.683594 157.675781 C 295.886719 157.746094 296.097656 157.761719 296.3125 157.726562 Z M 302.957031 157.753906 C 306.277344 157.765625 309.601562 157.777344 312.921875 157.789062 C 313.558594 157.789062 314.195312 157.394531 314.226562 156.683594 C 314.25 156.078125 313.808594 155.382812 313.121094 155.378906 C 309.796875 155.367188 306.476562 155.355469 303.152344 155.34375 C 302.519531 155.34375 301.882812 155.738281 301.851562 156.449219 C 301.824219 157.050781 302.300781 157.722656 302.957031 157.753906 Z M 302.957031 157.753906 " fill-opacity="1" fill-rule="nonzero"/></g></g></g><g clip-path="url(#d3870a5121)"><g clip-path="url(#183c10501e)"><g clip-path="url(#9600d61ff2)"><path fill="#102a4f" d="M 220.058594 148.617188 L 219.507812 148.714844 C 219.527344 148.828125 221.152344 159.925781 213.339844 161.40625 L 213.429688 161.960938 C 213.449219 161.953125 215.507812 161.695312 217.804688 162.734375 C 220.808594 164.089844 222.839844 167.070312 223.695312 171.359375 C 223.710938 171.445312 223.722656 171.503906 223.726562 171.523438 L 224.273438 171.417969 C 224.265625 171.382812 224.261719 171.351562 224.253906 171.316406 C 224.101562 170.5 223.121094 164.652344 225.367188 161.296875 C 226.179688 160.078125 227.339844 159.320312 228.816406 159.039062 L 228.738281 158.488281 C 228.460938 158.511719 222.03125 159.015625 220.058594 148.617188 Z M 220.058594 148.617188 " fill-opacity="1" fill-rule="nonzero"/></g></g></g><g clip-path="url(#6511a62e8c)"><g clip-path="url(#e4907d7c30)"><g clip-path="url(#faa0cccc45)"><path fill="#102a4f" d="M 218.609375 175.507812 L 215.433594 176.109375 L 214.832031 172.933594 C 214.757812 172.558594 214.398438 172.3125 214.023438 172.382812 L 213.804688 172.425781 C 213.429688 172.496094 213.183594 172.859375 213.253906 173.234375 L 213.855469 176.410156 L 210.679688 177.011719 C 210.308594 177.082031 210.058594 177.445312 210.132812 177.820312 L 210.171875 178.039062 C 210.246094 178.414062 210.605469 178.660156 210.980469 178.589844 L 214.15625 177.988281 L 214.757812 181.160156 C 214.832031 181.535156 215.191406 181.78125 215.566406 181.710938 L 215.785156 181.671875 C 216.160156 181.597656 216.40625 181.238281 216.335938 180.863281 L 215.734375 177.6875 L 218.910156 177.082031 C 219.28125 177.011719 219.53125 176.648438 219.457031 176.277344 L 219.417969 176.054688 C 219.34375 175.683594 218.980469 175.4375 218.609375 175.507812 Z M 218.609375 175.507812 " fill-opacity="1" fill-rule="nonzero"/></g></g></g><g clip-path="url(#c4689442e4)"><g clip-path="url(#f55de227e7)"><g clip-path="url(#2a6df2bbff)"><path fill="#102a4f" d="M 267.117188 222.382812 C 266.285156 223.554688 264.4375 222.300781 265.273438 221.128906 C 265.703125 220.519531 266.160156 219.929688 266.648438 219.367188 C 267.652344 218.207031 268.742188 217.132812 269.941406 216.179688 C 271.042969 215.3125 272.179688 214.53125 273.523438 214.097656 C 274.726562 213.714844 276.078125 213.683594 277.179688 214.378906 C 278.480469 215.203125 278.945312 216.859375 278.664062 218.316406 C 278.367188 219.84375 277.40625 221.03125 276.507812 222.25 C 275.621094 223.457031 274.824219 224.738281 274.171875 226.085938 C 273.839844 226.765625 273.503906 227.46875 273.289062 228.195312 C 273.207031 228.480469 273.144531 228.796875 273.191406 229.09375 C 273.238281 229.347656 273.296875 229.433594 273.425781 229.5625 C 273.566406 229.699219 273.238281 229.441406 273.519531 229.644531 C 273.570312 229.679688 273.621094 229.710938 273.667969 229.742188 C 273.777344 229.804688 273.703125 229.765625 273.679688 229.753906 C 273.75 229.785156 273.832031 229.816406 273.90625 229.84375 C 274.140625 229.921875 274.238281 229.933594 274.535156 229.941406 C 274.953125 229.949219 275.503906 229.742188 275.984375 229.421875 C 276.578125 229.027344 277.085938 228.484375 277.574219 227.972656 C 278.15625 227.367188 278.730469 226.757812 279.308594 226.148438 C 280.476562 224.914062 281.644531 223.679688 282.816406 222.445312 C 283.390625 221.847656 284.050781 221.257812 284.898438 221.125 C 285.613281 221.011719 286.316406 221.207031 286.855469 221.683594 C 287.757812 222.488281 288.011719 223.886719 287.835938 225.042969 C 287.421875 227.761719 285.550781 230.050781 284.3125 232.429688 C 284.019531 232.988281 283.765625 233.566406 283.5625 234.160156 C 283.453125 234.476562 283.359375 234.707031 283.367188 235.011719 C 283.371094 235.144531 283.363281 235.066406 283.367188 235.039062 C 283.347656 235.125 283.460938 235.171875 283.390625 235.101562 C 283.320312 235.03125 283.222656 234.976562 283.164062 234.914062 C 283.082031 234.925781 283.082031 234.921875 283.160156 234.90625 C 283.226562 234.890625 283.238281 234.886719 283.199219 234.902344 C 283.117188 234.941406 283.3125 234.847656 283.300781 234.855469 C 283.414062 234.800781 283.503906 234.746094 283.570312 234.699219 C 283.847656 234.5 284.105469 234.265625 284.363281 234.042969 C 284.949219 233.535156 285.519531 233.003906 286.066406 232.449219 C 286.582031 231.921875 287.078125 231.375 287.546875 230.804688 C 288.027344 230.226562 288.464844 229.570312 289.066406 229.105469 C 290.308594 228.140625 292.414062 228.152344 293.046875 229.832031 C 293.375 230.699219 293.148438 231.605469 292.734375 232.398438 C 292.445312 232.953125 292.011719 233.433594 291.742188 233.996094 C 291.644531 234.195312 291.539062 234.519531 291.539062 234.675781 C 291.539062 234.695312 291.550781 234.914062 291.59375 234.90625 C 291.566406 234.910156 291.308594 234.699219 291.488281 234.824219 C 291.4375 234.789062 291.332031 234.753906 291.464844 234.808594 C 291.34375 234.761719 291.3125 234.832031 291.4375 234.804688 C 291.65625 234.753906 291.277344 234.847656 291.488281 234.785156 C 291.359375 234.820312 291.375 234.871094 291.460938 234.800781 C 291.441406 234.824219 291.371094 234.960938 291.40625 234.867188 C 291.46875 234.6875 291.308594 235.214844 291.3125 235.160156 C 291.308594 235.261719 291.335938 235.335938 291.367188 235.421875 C 291.152344 234.859375 291.300781 234.210938 291.875 233.929688 C 292.382812 233.679688 293.148438 233.875 293.371094 234.4375 C 293.648438 235.144531 293.550781 235.886719 292.984375 236.425781 C 291.945312 237.402344 290.171875 237.15625 289.558594 235.832031 C 288.820312 234.230469 289.878906 232.828125 290.671875 231.515625 C 290.792969 231.320312 290.910156 231.089844 290.957031 230.878906 C 290.933594 231 290.988281 230.664062 290.988281 230.664062 C 290.988281 230.664062 291.039062 230.695312 291.039062 230.699219 C 291.085938 230.550781 290.859375 230.644531 290.980469 230.667969 C 291.136719 230.699219 290.664062 230.679688 290.84375 230.660156 C 290.84375 230.660156 290.664062 230.710938 290.742188 230.675781 C 290.851562 230.621094 290.597656 230.742188 290.589844 230.75 C 290.394531 230.863281 290.226562 231.039062 290.074219 231.207031 C 289.527344 231.816406 289.039062 232.484375 288.488281 233.097656 C 287.972656 233.679688 287.429688 234.242188 286.867188 234.78125 C 286.308594 235.3125 285.738281 235.832031 285.128906 236.308594 C 284.519531 236.785156 283.777344 237.203125 282.972656 237.144531 C 282.097656 237.078125 281.394531 236.421875 281.199219 235.578125 C 281.027344 234.855469 281.21875 234.101562 281.457031 233.417969 C 282.359375 230.78125 284.226562 228.628906 285.230469 226.046875 C 285.484375 225.398438 285.617188 225.0625 285.648438 224.472656 C 285.667969 224.050781 285.632812 223.757812 285.410156 223.378906 C 285.515625 223.5625 285.414062 223.386719 285.375 223.347656 C 285.273438 223.25 285.417969 223.378906 285.417969 223.378906 C 285.425781 223.375 285.179688 223.238281 285.433594 223.363281 C 285.398438 223.34375 285.339844 223.316406 285.300781 223.3125 C 285.167969 223.300781 285.34375 223.324219 285.34375 223.324219 C 284.96875 223.378906 285.304688 223.289062 285.230469 223.328125 C 285.148438 223.371094 285.070312 223.402344 284.992188 223.457031 C 284.34375 223.894531 283.8125 224.621094 283.277344 225.1875 C 282.085938 226.441406 280.894531 227.699219 279.707031 228.953125 C 278.65625 230.0625 277.585938 231.296875 276.117188 231.855469 C 274.828125 232.34375 273.230469 232.292969 272.121094 231.382812 C 270.730469 230.242188 270.761719 228.480469 271.363281 226.917969 C 271.925781 225.457031 272.675781 224.039062 273.5 222.707031 C 273.917969 222.035156 274.367188 221.382812 274.84375 220.746094 C 275.28125 220.164062 275.75 219.585938 276.097656 218.9375 C 276.367188 218.4375 276.558594 217.820312 276.503906 217.285156 C 276.449219 216.734375 276.214844 216.382812 275.816406 216.171875 C 275.9375 216.238281 275.628906 216.109375 275.558594 216.089844 C 275.707031 216.132812 275.449219 216.074219 275.402344 216.070312 C 275.066406 216.035156 275.097656 216.039062 274.769531 216.085938 C 274.175781 216.179688 273.832031 216.316406 273.273438 216.597656 C 272.113281 217.183594 271.03125 218.109375 270.003906 219.0625 C 268.929688 220.0625 267.972656 221.175781 267.117188 222.382812 Z M 267.117188 222.382812 " fill-opacity="1" fill-rule="nonzero"/></g></g></g><g clip-path="url(#93e408a7ee)"><g clip-path="url(#c8d7df194c)"><g clip-path="url(#39bbcfc2aa)"><path fill="#102a4f" d="M 241.144531 245.339844 L 238.136719 245.910156 L 237.566406 242.902344 C 237.496094 242.550781 237.152344 242.3125 236.796875 242.382812 L 236.589844 242.421875 C 236.238281 242.488281 236 242.832031 236.066406 243.1875 L 236.640625 246.195312 L 233.632812 246.769531 C 233.277344 246.835938 233.039062 247.179688 233.109375 247.535156 L 233.148438 247.742188 C 233.214844 248.097656 233.558594 248.332031 233.914062 248.265625 L 236.921875 247.695312 L 237.496094 250.703125 C 237.5625 251.054688 237.90625 251.292969 238.261719 251.226562 L 238.46875 251.1875 C 238.824219 251.117188 239.058594 250.773438 238.992188 250.417969 L 238.421875 247.410156 L 241.429688 246.839844 C 241.78125 246.769531 242.019531 246.425781 241.953125 246.070312 L 241.914062 245.863281 C 241.84375 245.507812 241.5 245.273438 241.144531 245.339844 Z M 241.144531 245.339844 " fill-opacity="1" fill-rule="nonzero"/></g></g></g><g clip-path="url(#adac28605d)"><path fill="#102a4f" d="M 232.667969 297.03125 L 219.292969 283.660156 C 219.101562 283.46875 218.816406 283.410156 218.5625 283.515625 C 218.3125 283.617188 218.152344 283.863281 218.152344 284.132812 L 218.152344 302.648438 C 218.152344 302.90625 218.296875 303.140625 218.527344 303.25 C 218.757812 303.363281 219.03125 303.335938 219.230469 303.175781 L 222.625 300.523438 L 225.589844 305.855469 C 225.710938 306.074219 225.941406 306.199219 226.175781 306.199219 C 226.277344 306.199219 226.378906 306.175781 226.476562 306.128906 L 230.488281 304.121094 C 230.652344 304.039062 230.773438 303.894531 230.828125 303.722656 C 230.878906 303.546875 230.859375 303.359375 230.773438 303.199219 L 227.980469 298.175781 L 232.195312 298.175781 C 232.464844 298.175781 232.707031 298.011719 232.8125 297.761719 C 232.914062 297.511719 232.855469 297.226562 232.667969 297.03125 Z M 232.667969 297.03125 " fill-opacity="1" fill-rule="nonzero"/></g><g clip-path="url(#f587c6e0c9)"><path fill="#102a4f" d="M 218.820312 274.097656 C 218.449219 274.097656 218.152344 274.398438 218.152344 274.769531 L 218.152344 278.78125 C 218.152344 279.148438 218.449219 279.449219 218.820312 279.449219 C 219.1875 279.449219 219.488281 279.148438 219.488281 278.78125 L 219.488281 274.769531 C 219.488281 274.398438 219.1875 274.097656 218.820312 274.097656 Z M 218.820312 274.097656 " fill-opacity="1" fill-rule="nonzero"/></g><g clip-path="url(#5c55543a66)"><path fill="#102a4f" d="M 213.46875 283.460938 L 209.457031 283.460938 C 209.089844 283.460938 208.789062 283.761719 208.789062 284.128906 C 208.789062 284.5 209.089844 284.796875 209.457031 284.796875 L 213.46875 284.796875 C 213.839844 284.796875 214.140625 284.5 214.140625 284.128906 C 214.140625 283.761719 213.839844 283.460938 213.46875 283.460938 Z M 213.46875 283.460938 " fill-opacity="1" fill-rule="nonzero"/></g><path fill="#102a4f" d="M 228.183594 283.460938 L 224.167969 283.460938 C 223.800781 283.460938 223.5 283.761719 223.5 284.128906 C 223.5 284.5 223.800781 284.796875 224.167969 284.796875 L 228.183594 284.796875 C 228.550781 284.796875 228.851562 284.5 228.851562 284.128906 C 228.851562 283.761719 228.550781 283.460938 228.183594 283.460938 Z M 228.183594 283.460938 " fill-opacity="1" fill-rule="nonzero"/><path fill="#102a4f" d="M 215.511719 279.875 L 212.671875 277.039062 C 212.410156 276.777344 211.988281 276.777344 211.726562 277.039062 C 211.464844 277.296875 211.464844 277.722656 211.726562 277.984375 L 214.5625 280.820312 C 214.695312 280.949219 214.867188 281.015625 215.039062 281.015625 C 215.207031 281.015625 215.378906 280.949219 215.511719 280.820312 C 215.769531 280.558594 215.769531 280.132812 215.511719 279.875 Z M 215.511719 279.875 " fill-opacity="1" fill-rule="nonzero"/><path fill="#102a4f" d="M 215.511719 287.441406 C 215.25 287.179688 214.824219 287.179688 214.5625 287.441406 L 211.726562 290.277344 C 211.464844 290.539062 211.464844 290.960938 211.726562 291.222656 C 211.855469 291.351562 212.027344 291.417969 212.199219 291.417969 C 212.371094 291.417969 212.542969 291.351562 212.671875 291.222656 L 215.511719 288.386719 C 215.769531 288.125 215.769531 287.703125 215.511719 287.441406 Z M 215.511719 287.441406 " fill-opacity="1" fill-rule="nonzero"/><path fill="#102a4f" d="M 225.914062 277.039062 C 225.652344 276.773438 225.230469 276.773438 224.964844 277.039062 L 222.128906 279.875 C 221.867188 280.132812 221.867188 280.558594 222.128906 280.820312 C 222.257812 280.949219 222.429688 281.015625 222.601562 281.015625 C 222.773438 281.015625 222.945312 280.949219 223.074219 280.820312 L 225.914062 277.984375 C 226.175781 277.722656 226.175781 277.300781 225.914062 277.039062 Z M 225.914062 277.039062 " fill-opacity="1" fill-rule="nonzero"/><g fill="#000000" fill-opacity="1"><g transform="translate(111.393555, 220.681213)"><g><path d="M 24.53125 -28.625 L 20.109375 -24.171875 L 15.5 -28.890625 L 20.109375 -33.5625 L 23.96875 -29.609375 L 28.78125 -34.53125 L 33.921875 -29.40625 L 28.78125 -24.328125 Z M 34.28125 -25.96875 L 49.109375 -24.734375 L 49.109375 0 L 19.453125 0 C 16.265625 0 13.378906 -0.347656 10.796875 -1.046875 C 8.210938 -1.753906 6.082031 -2.96875 4.40625 -4.6875 C 2.738281 -6.414062 1.644531 -8.800781 1.125 -11.84375 C 0.613281 -14.894531 0.835938 -18.78125 1.796875 -23.5 L 14.515625 -21.03125 L 11.1875 -12.359375 L 36.796875 -12.359375 Z M 34.28125 -25.96875 "/></g></g></g><g fill="#000000" fill-opacity="1"><g transform="translate(160.482544, 220.681213)"><g><path d="M 21.140625 3.078125 L 21.75 0 L -4.359375 0 L -4.359375 -12.359375 L 4 -12.359375 L 4 -19.8125 L 16.78125 -24.890625 L 14.671875 -12.359375 L 17.953125 -12.359375 L 17.953125 -18.53125 L 29.296875 -22.265625 L 27.859375 -8.875 L 32.78125 -8.875 L 30.328125 -25.96875 L 43.921875 -24.734375 L 43.921875 3.078125 Z M 21.140625 3.078125 "/></g></g></g><g fill="#000000" fill-opacity="1"><g transform="translate(205.262788, 220.681213)"><g><path d="M 3.953125 0 L 0.203125 -35.875 L 13.796875 -38.328125 L 13.796875 0 Z M 3.953125 0 "/></g></g></g><g fill="#000000" fill-opacity="1"><g transform="translate(219.061048, 220.681213)"><g><path d="M -4.359375 0 L -4.359375 -12.359375 L 10.921875 -12.359375 L 1.84375 -34.6875 L 32.421875 -39.609375 L 32.421875 -19.8125 L 17.03125 -23.5 L 27.453125 0 Z M -4.359375 0 "/></g></g></g><g fill="#000000" fill-opacity="1"><g transform="translate(252.351287, 220.681213)"><g><path d="M 0.875 0 L 0.875 -12.359375 L 18.78125 -12.359375 L 6.15625 -18.53125 L 16.0625 -30.9375 C 16.0625 -30.9375 16.472656 -30.617188 17.296875 -29.984375 C 18.117188 -29.359375 19.132812 -28.425781 20.34375 -27.1875 C 21.5625 -25.957031 22.785156 -24.460938 24.015625 -22.703125 C 25.242188 -20.941406 26.269531 -18.953125 27.09375 -16.734375 C 27.945312 -14.398438 28.414062 -11.832031 28.5 -9.03125 C 28.582031 -6.226562 28.03125 -3.21875 26.84375 0 Z M 0.875 0 "/></g></g></g><g fill="#000000" fill-opacity="1"><g transform="translate(281.743125, 220.681213)"><g><path d="M 23.140625 12.359375 L 4.5625 4.921875 L 13.234375 0 C 11.523438 0 9.925781 -0.171875 8.4375 -0.515625 C 6.945312 -0.859375 5.628906 -1.472656 4.484375 -2.359375 C 3.335938 -3.242188 2.445312 -4.5 1.8125 -6.125 C 1.1875 -7.75 0.875 -9.828125 0.875 -12.359375 C 0.875 -14.929688 1.1875 -17.035156 1.8125 -18.671875 C 2.445312 -20.316406 3.335938 -21.59375 4.484375 -22.5 C 5.628906 -23.40625 6.945312 -24.03125 8.4375 -24.375 C 9.925781 -24.71875 11.523438 -24.890625 13.234375 -24.890625 C 14.941406 -24.890625 16.539062 -24.71875 18.03125 -24.375 C 19.519531 -24.03125 20.835938 -23.40625 21.984375 -22.5 C 23.128906 -21.59375 24.019531 -20.316406 24.65625 -18.671875 C 25.289062 -17.035156 25.609375 -14.929688 25.609375 -12.359375 L 25.609375 0 Z M 23.140625 12.359375 "/></g></g></g><g fill="#000000" fill-opacity="1"><g transform="translate(307.339168, 220.681213)"><g><path d="M -4.359375 0 L -4.359375 -12.359375 L 8 -12.359375 L 5.546875 -26.0625 L 20.375 -24.890625 L 20.375 0 Z M 8.71875 12.828125 L 3.078125 7.1875 L 8.71875 1.59375 L 14.3125 7.1875 Z M 8.71875 12.828125 "/></g></g></g><g fill="#ffffff" fill-opacity="1"><g transform="translate(106.857855, 216.145515)"><g><path d="M 24.53125 -28.625 L 20.109375 -24.171875 L 15.5 -28.890625 L 20.109375 -33.5625 L 23.96875 -29.609375 L 28.78125 -34.53125 L 33.921875 -29.40625 L 28.78125 -24.328125 Z M 34.28125 -25.96875 L 49.109375 -24.734375 L 49.109375 0 L 19.453125 0 C 16.265625 0 13.378906 -0.347656 10.796875 -1.046875 C 8.210938 -1.753906 6.082031 -2.96875 4.40625 -4.6875 C 2.738281 -6.414062 1.644531 -8.800781 1.125 -11.84375 C 0.613281 -14.894531 0.835938 -18.78125 1.796875 -23.5 L 14.515625 -21.03125 L 11.1875 -12.359375 L 36.796875 -12.359375 Z M 34.28125 -25.96875 "/></g></g></g><g fill="#ffffff" fill-opacity="1"><g transform="translate(155.946844, 216.145515)"><g><path d="M 21.140625 3.078125 L 21.75 0 L -4.359375 0 L -4.359375 -12.359375 L 4 -12.359375 L 4 -19.8125 L 16.78125 -24.890625 L 14.671875 -12.359375 L 17.953125 -12.359375 L 17.953125 -18.53125 L 29.296875 -22.265625 L 27.859375 -8.875 L 32.78125 -8.875 L 30.328125 -25.96875 L 43.921875 -24.734375 L 43.921875 3.078125 Z M 21.140625 3.078125 "/></g></g></g><g fill="#ffffff" fill-opacity="1"><g transform="translate(200.727088, 216.145515)"><g><path d="M 3.953125 0 L 0.203125 -35.875 L 13.796875 -38.328125 L 13.796875 0 Z M 3.953125 0 "/></g></g></g><g fill="#ffffff" fill-opacity="1"><g transform="translate(214.525348, 216.145515)"><g><path d="M -4.359375 0 L -4.359375 -12.359375 L 10.921875 -12.359375 L 1.84375 -34.6875 L 32.421875 -39.609375 L 32.421875 -19.8125 L 17.03125 -23.5 L 27.453125 0 Z M -4.359375 0 "/></g></g></g><g fill="#ffffff" fill-opacity="1"><g transform="translate(247.815587, 216.145515)"><g><path d="M 0.875 0 L 0.875 -12.359375 L 18.78125 -12.359375 L 6.15625 -18.53125 L 16.0625 -30.9375 C 16.0625 -30.9375 16.472656 -30.617188 17.296875 -29.984375 C 18.117188 -29.359375 19.132812 -28.425781 20.34375 -27.1875 C 21.5625 -25.957031 22.785156 -24.460938 24.015625 -22.703125 C 25.242188 -20.941406 26.269531 -18.953125 27.09375 -16.734375 C 27.945312 -14.398438 28.414062 -11.832031 28.5 -9.03125 C 28.582031 -6.226562 28.03125 -3.21875 26.84375 0 Z M 0.875 0 "/></g></g></g><g fill="#ffffff" fill-opacity="1"><g transform="translate(277.207426, 216.145515)"><g><path d="M 23.140625 12.359375 L 4.5625 4.921875 L 13.234375 0 C 11.523438 0 9.925781 -0.171875 8.4375 -0.515625 C 6.945312 -0.859375 5.628906 -1.472656 4.484375 -2.359375 C 3.335938 -3.242188 2.445312 -4.5 1.8125 -6.125 C 1.1875 -7.75 0.875 -9.828125 0.875 -12.359375 C 0.875 -14.929688 1.1875 -17.035156 1.8125 -18.671875 C 2.445312 -20.316406 3.335938 -21.59375 4.484375 -22.5 C 5.628906 -23.40625 6.945312 -24.03125 8.4375 -24.375 C 9.925781 -24.71875 11.523438 -24.890625 13.234375 -24.890625 C 14.941406 -24.890625 16.539062 -24.71875 18.03125 -24.375 C 19.519531 -24.03125 20.835938 -23.40625 21.984375 -22.5 C 23.128906 -21.59375 24.019531 -20.316406 24.65625 -18.671875 C 25.289062 -17.035156 25.609375 -14.929688 25.609375 -12.359375 L 25.609375 0 Z M 23.140625 12.359375 "/></g></g></g><g fill="#ffffff" fill-opacity="1"><g transform="translate(302.803469, 216.145515)"><g><path d="M -4.359375 0 L -4.359375 -12.359375 L 8 -12.359375 L 5.546875 -26.0625 L 20.375 -24.890625 L 20.375 0 Z M 8.71875 12.828125 L 3.078125 7.1875 L 8.71875 1.59375 L 14.3125 7.1875 Z M 8.71875 12.828125 "/></g></g></g><g fill="#000000" fill-opacity="1"><g transform="translate(36.645489, 240.664789)"><g><path d="M 14.359375 -18.625 L 33.796875 -16.203125 L 33.796875 0 L 24.875 0 L 25.625 -10.53125 L 24.578125 -10.53125 L 24.046875 -4.203125 C 23.816406 -1.628906 23.179688 0.445312 22.140625 2.03125 C 21.097656 3.613281 19.75 4.765625 18.09375 5.484375 C 16.4375 6.203125 14.5625 6.5625 12.46875 6.5625 C 10.300781 6.5625 8.3125 6.140625 6.5 5.296875 C 4.695312 4.453125 3.257812 3.144531 2.1875 1.375 C 1.113281 -0.394531 0.578125 -2.644531 0.578125 -5.375 L 0.578125 -12.140625 L 10.296875 -10.53125 L 8.671875 0 L 15.96875 0 Z M 12.34375 9.546875 L 15 6.859375 L 17.78125 9.65625 L 15 12.4375 L 12.578125 9.984375 L 9.65625 12.90625 L 6.625 9.890625 L 9.65625 6.859375 Z M 12.34375 9.546875 "/></g></g></g><g fill="#000000" fill-opacity="1"><g transform="translate(70.434728, 240.664789)"><g><path d="M -2.859375 0 L -2.859375 -8.109375 L 5.25 -8.109375 L 3.625 -16.34375 L 13.34375 -15.53125 L 13.34375 0 Z M 5.71875 8.40625 L 2.015625 4.703125 L 5.71875 1.046875 L 9.375 4.703125 Z M 5.71875 8.40625 "/></g></g></g><g fill="#000000" fill-opacity="1"><g transform="translate(83.782315, 240.664789)"><g><path d="M 19.46875 -17.046875 C 20.851562 -17.046875 22.066406 -16.796875 23.109375 -16.296875 C 24.160156 -15.804688 25.023438 -15.144531 25.703125 -14.3125 C 26.390625 -13.488281 26.898438 -12.554688 27.234375 -11.515625 C 27.566406 -10.472656 27.734375 -9.414062 27.734375 -8.34375 C 27.734375 -6.945312 27.425781 -5.609375 26.8125 -4.328125 C 26.195312 -3.054688 25.273438 -2.015625 24.046875 -1.203125 C 22.828125 -0.398438 21.300781 0 19.46875 0 L -2.859375 0 L -2.859375 -8.109375 L 4.203125 -8.109375 L 1.515625 -23.5 L 10.421875 -25.125 L 10.421875 -12.03125 C 11.410156 -13.488281 12.695312 -14.6875 14.28125 -15.625 C 15.875 -16.570312 17.601562 -17.046875 19.46875 -17.046875 Z M 19.46875 -17.046875 "/></g></g></g><g fill="#ffffff" fill-opacity="1"><g transform="translate(34.161177, 238.79272)"><g><path d="M 14.359375 -18.625 L 33.796875 -16.203125 L 33.796875 0 L 24.875 0 L 25.625 -10.53125 L 24.578125 -10.53125 L 24.046875 -4.203125 C 23.816406 -1.628906 23.179688 0.445312 22.140625 2.03125 C 21.097656 3.613281 19.75 4.765625 18.09375 5.484375 C 16.4375 6.203125 14.5625 6.5625 12.46875 6.5625 C 10.300781 6.5625 8.3125 6.140625 6.5 5.296875 C 4.695312 4.453125 3.257812 3.144531 2.1875 1.375 C 1.113281 -0.394531 0.578125 -2.644531 0.578125 -5.375 L 0.578125 -12.140625 L 10.296875 -10.53125 L 8.671875 0 L 15.96875 0 Z M 12.34375 9.546875 L 15 6.859375 L 17.78125 9.65625 L 15 12.4375 L 12.578125 9.984375 L 9.65625 12.90625 L 6.625 9.890625 L 9.65625 6.859375 Z M 12.34375 9.546875 "/></g></g></g><g fill="#ffffff" fill-opacity="1"><g transform="translate(67.950416, 238.79272)"><g><path d="M -2.859375 0 L -2.859375 -8.109375 L 5.25 -8.109375 L 3.625 -16.34375 L 13.34375 -15.53125 L 13.34375 0 Z M 5.71875 8.40625 L 2.015625 4.703125 L 5.71875 1.046875 L 9.375 4.703125 Z M 5.71875 8.40625 "/></g></g></g><g fill="#ffffff" fill-opacity="1"><g transform="translate(81.298002, 238.79272)"><g><path d="M 19.46875 -17.046875 C 20.851562 -17.046875 22.066406 -16.796875 23.109375 -16.296875 C 24.160156 -15.804688 25.023438 -15.144531 25.703125 -14.3125 C 26.390625 -13.488281 26.898438 -12.554688 27.234375 -11.515625 C 27.566406 -10.472656 27.734375 -9.414062 27.734375 -8.34375 C 27.734375 -6.945312 27.425781 -5.609375 26.8125 -4.328125 C 26.195312 -3.054688 25.273438 -2.015625 24.046875 -1.203125 C 22.828125 -0.398438 21.300781 0 19.46875 0 L -2.859375 0 L -2.859375 -8.109375 L 4.203125 -8.109375 L 1.515625 -23.5 L 10.421875 -25.125 L 10.421875 -12.03125 C 11.410156 -13.488281 12.695312 -14.6875 14.28125 -15.625 C 15.875 -16.570312 17.601562 -17.046875 19.46875 -17.046875 Z M 19.46875 -17.046875 "/></g></g></g><g clip-path="url(#a2160de30b)"><path fill="#102a4f" d="M 112.296875 284.601562 L 201.898438 284.601562 L 201.898438 286.851562 L 112.296875 286.851562 Z M 112.296875 284.601562 " fill-opacity="1" fill-rule="nonzero"/></g><g fill="#102a4f" fill-opacity="1"><g transform="translate(112.29514, 283.101397)"><g><path d="M 7.90625 -10.796875 L 5.5625 -13.1875 L 7.90625 -15.546875 L 10.265625 -13.171875 Z M 8.15625 2.1875 C 6.726562 2.1875 5.425781 1.898438 4.25 1.328125 C 3.082031 0.753906 2.148438 -0.109375 1.453125 -1.265625 C 0.753906 -2.429688 0.40625 -3.921875 0.40625 -5.734375 L 0.40625 -8.90625 L 7.265625 -7.75 L 5.921875 -2.015625 L 10.140625 -2.015625 L 8.984375 -10.03125 L 15.859375 -9.484375 L 15.859375 -5.734375 C 15.859375 -4.242188 15.65625 -2.988281 15.25 -1.96875 C 14.851562 -0.957031 14.300781 -0.148438 13.59375 0.453125 C 12.894531 1.066406 12.078125 1.507812 11.140625 1.78125 C 10.210938 2.050781 9.21875 2.1875 8.15625 2.1875 Z M 8.15625 2.1875 "/></g></g></g><g fill="#102a4f" fill-opacity="1"><g transform="translate(128.542751, 283.101397)"><g><path d="M 0.40625 0 L 0.40625 -6.875 L 8.796875 -5.734375 L 7.078125 -16.609375 L 13.375 -17.75 L 13.375 -6.03125 C 13.375 -4.5 13.097656 -3.289062 12.546875 -2.40625 C 12.003906 -1.53125 11.273438 -0.910156 10.359375 -0.546875 C 9.453125 -0.179688 8.445312 0 7.34375 0 Z M 7.078125 -6.875 L 2.6875 -7.4375 L 0.40625 -13.734375 L 6.515625 -14.875 Z M 7.078125 -6.875 "/></g></g></g><g fill="#102a4f" fill-opacity="1"><g transform="translate(142.319972, 283.101397)"><g><path d="M 1.828125 0 L 0.09375 -16.609375 L 6.390625 -17.75 L 6.390625 0 Z M 1.828125 0 "/></g></g></g><g fill="#102a4f" fill-opacity="1"><g transform="translate(149.113562, 283.101397)"><g/></g></g><g fill="#102a4f" fill-opacity="1"><g transform="translate(155.978414, 283.101397)"><g><path d="M 1.828125 0 L 0.09375 -16.609375 L 6.390625 -17.75 L 6.390625 0 Z M 1.828125 0 "/></g></g></g><g fill="#102a4f" fill-opacity="1"><g transform="translate(162.368188, 283.101397)"><g><path d="M 4.59375 -12.578125 L 2.234375 -14.96875 L 4.59375 -17.328125 L 6.9375 -14.953125 Z M -2.015625 0 L -2.015625 -5.734375 L 3.703125 -5.734375 L 2.5625 -12.078125 L 9.4375 -11.53125 L 9.4375 0 Z M -2.015625 0 "/></g></g></g><g fill="#102a4f" fill-opacity="1"><g transform="translate(172.202267, 283.101397)"><g><path d="M 6.765625 5.734375 L -1.21875 2.28125 L 3.15625 0 L 0.875 -6.296875 L 8.3125 -8.015625 L 8.3125 0 Z M 6.765625 5.734375 "/></g></g></g><g fill="#102a4f" fill-opacity="1"><g transform="translate(180.919918, 283.101397)"><g><path d="M 11.859375 5.734375 L 2.109375 2.28125 L 6.125 0 C 5.332031 0 4.59375 -0.078125 3.90625 -0.234375 C 3.21875 -0.390625 2.609375 -0.675781 2.078125 -1.09375 C 1.546875 -1.507812 1.132812 -2.09375 0.84375 -2.84375 C 0.550781 -3.59375 0.40625 -4.554688 0.40625 -5.734375 C 0.40625 -6.921875 0.550781 -7.894531 0.84375 -8.65625 C 1.132812 -9.414062 1.546875 -10.003906 2.078125 -10.421875 C 2.609375 -10.835938 3.21875 -11.125 3.90625 -11.28125 C 4.59375 -11.445312 5.332031 -11.53125 6.125 -11.53125 C 6.914062 -11.53125 7.65625 -11.445312 8.34375 -11.28125 C 9.039062 -11.125 9.65625 -10.835938 10.1875 -10.421875 C 10.71875 -10.003906 11.128906 -9.414062 11.421875 -8.65625 C 11.710938 -7.894531 11.859375 -6.921875 11.859375 -5.734375 Z M 11.859375 5.734375 "/></g></g></g><g fill="#102a4f" fill-opacity="1"><g transform="translate(193.176895, 283.101397)"><g><path d="M 4.234375 -9.046875 L 1.875 -11.453125 L 4.234375 -13.8125 L 6.578125 -11.4375 Z M 6.765625 5.734375 L -1.21875 2.28125 L 3.15625 0 L 0.875 -6.296875 L 8.3125 -8.015625 L 8.3125 0 Z M 6.765625 5.734375 "/></g></g></g><path fill="#102a4f" d="M 201.898438 284.601562 L 208.765625 284.601562 L 208.765625 286.851562 L 201.898438 286.851562 Z M 201.898438 284.601562 " fill-opacity="1" fill-rule="nonzero"/><g fill="#102a4f" fill-opacity="1"><g transform="translate(201.896696, 283.101397)"><g/></g></g></svg>