
<svg width="190" height="75" viewBox="0 0 190 75" fill="none" xmlns="http://www.w3.org/2000/svg">
    <path d="M188 47.4507C104.027 76.7068 42.0274 61.5566 2 2" stroke="#D1D1D3" stroke-width="3" stroke-linecap="round" stroke-dasharray="9 9"/>
    <path d="M94.1056 61.7961L102.909 74.0036C103.113 74.2862 103.415 74.4719 103.76 74.5265C104.104 74.5811 104.449 74.4978 104.73 74.292L105.624 73.6376C106.206 73.211 106.337 72.3885 105.915 71.8037L98.5224 61.5525L108.732 54.0792C109.013 53.8734 109.198 53.5691 109.253 53.222C109.308 52.8745 109.226 52.5278 109.023 52.2451L108.374 51.3465C108.17 51.0639 107.869 50.8782 107.524 50.8236C107.179 50.7689 106.834 50.8522 106.553 51.058L94.3971 59.9558C94.1155 60.1623 93.9303 60.4682 93.876 60.816C93.8199 61.1649 93.9015 61.5129 94.1056 61.7961Z" fill="#fb923c"/>
</svg>