<svg width="190" height="75" viewBox="0 0 190 75" fill="none" xmlns="http://www.w3.org/2000/svg">
<path d="M188 27.4033C104.027 -1.85282 42.0274 13.2974 2 72.854" stroke="#D1D1D3" stroke-width="3" stroke-linecap="round" stroke-dasharray="9 9"/>
<path d="M94.1056 13.0579L102.909 0.850367C103.113 0.567824 103.415 0.382087 103.76 0.327473C104.104 0.272859 104.449 0.356156 104.73 0.561961L105.624 1.21645C106.206 1.64303 106.337 2.46555 105.915 3.05035L98.5224 13.3015L108.732 20.7748C109.013 20.9806 109.198 21.2849 109.253 21.632C109.308 21.9795 109.226 22.3262 109.023 22.6089L108.374 23.5076C108.17 23.7901 107.869 23.9758 107.524 24.0304C107.179 24.0851 106.834 24.0018 106.553 23.796L94.3971 14.8982C94.1155 14.6917 93.9303 14.3858 93.876 14.038C93.8199 13.6891 93.9015 13.3411 94.1056 13.0579Z" fill="#fb923c"/>
</svg>